<?xml version="1.0" encoding="utf-8"?>
<COLLADA xmlns="http://www.collada.org/2005/11/COLLADASchema" version="1.4.1" xmlns:xsi="http://www.w3.org/2001/XMLSchema-instance">
  <asset>
    <contributor>
      <author>Blender User</author>
      <authoring_tool>Blender 3.3.1 commit date:2022-10-04, commit time:18:35, hash:b292cfe5a936</authoring_tool>
    </contributor>
    <created>2025-07-10T19:08:36</created>
    <modified>2025-07-10T19:08:36</modified>
    <unit name="meter" meter="1"/>
    <up_axis>Z_UP</up_axis>
  </asset>
  <library_effects>
    <effect id="Material-effect">
      <profile_COMMON>
        <technique sid="common">
          <lambert>
            <emission>
              <color sid="emission">0 0 0 1</color>
            </emission>
            <diffuse>
              <color sid="diffuse">0.8 0.8 0.8 1</color>
            </diffuse>
            <index_of_refraction>
              <float sid="ior">1.45</float>
            </index_of_refraction>
          </lambert>
        </technique>
      </profile_COMMON>
    </effect>
  </library_effects>
  <library_images/>
  <library_materials>
    <material id="Material-material" name="Material">
      <instance_effect url="#Material-effect"/>
    </material>
  </library_materials>
  <library_geometries>
    <geometry id="Cube-mesh" name="Cube">
      <mesh>
        <source id="Cube-mesh-positions">
          <float_array id="Cube-mesh-positions-array" count="60">1 1 1.013787 1 1 -1 1 -1 1.013787 1 -1 -1 -1 1 1.013787 -1 1 -1 -1 -1 1.013787 -1 -1 -1 0.5363538 0.5363538 1.652833 0.5363538 -0.5363538 1.652833 -0.5363538 0.5363538 1.652833 -0.5363538 -0.5363538 1.652833 0.5363538 0.5363538 2.461607 0.5363538 -0.5363538 2.461607 -0.5363538 0.5363538 2.461607 -0.5363538 -0.5363538 2.461607 0.2144029 0.2144029 2.996253 0.2144029 -0.2144029 2.996253 -0.2144029 0.2144029 2.996253 -0.2144029 -0.2144029 2.996253</float_array>
          <technique_common>
            <accessor source="#Cube-mesh-positions-array" count="20" stride="3">
              <param name="X" type="float"/>
              <param name="Y" type="float"/>
              <param name="Z" type="float"/>
            </accessor>
          </technique_common>
        </source>
        <source id="Cube-mesh-normals">
          <float_array id="Cube-mesh-normals-array" count="60">0 -1 0 -1 0 0 0 0 -1 1 0 0 0 1 0 0 -0.8094072 0.5872479 0 0.8094072 0.5872479 0.8094072 0 0.587248 -0.8094072 0 0.587248 -0.8566691 0 0.5158664 0 -0.8566692 0.5158662 0 0.8566692 0.5158662 0.8566691 0 0.5158664 0 0 1 0 -0.8094072 0.5872477 0 0.8094072 0.5872477 0.8094074 0 0.5872477 -0.8094074 0 0.5872477 -0.8566694 0 0.5158658 0.8566694 0 0.5158658</float_array>
          <technique_common>
            <accessor source="#Cube-mesh-normals-array" count="20" stride="3">
              <param name="X" type="float"/>
              <param name="Y" type="float"/>
              <param name="Z" type="float"/>
            </accessor>
          </technique_common>
        </source>
        <source id="Cube-mesh-map-0">
          <float_array id="Cube-mesh-map-0-array" count="216">0.625 0.75 0.375 1 0.375 0.75 0.625 0 0.375 0.25 0.375 0 0.375 0.5 0.125 0.75 0.125 0.5 0.625 0.5 0.375 0.75 0.375 0.5 0.625 0.25 0.375 0.5 0.375 0.25 0.625 0.75 0.625 1 0.625 1 0.625 0.25 0.625 0.5 0.625 0.5 0.625 0.5 0.625 0.75 0.625 0.75 0.625 0 0.625 0.25 0.625 0.25 0.625 0.25 0.625 0.5 0.625 0.5 0.625 0.5 0.625 0.75 0.625 0.75 0.625 0 0.625 0.25 0.625 0.25 0.625 0.75 0.625 1 0.625 1 0.625 0 0.625 0.25 0.625 0.25 0.625 0.75 0.625 1 0.625 1 0.625 0.25 0.625 0.5 0.625 0.5 0.625 0.5 0.625 0.75 0.625 0.75 0.625 0.5 0.625 0 0.625 0.75 0.625 0.75 0.625 1 0.375 1 0.625 0 0.625 0.25 0.375 0.25 0.375 0.5 0.375 0.75 0.125 0.75 0.625 0.5 0.625 0.75 0.375 0.75 0.625 0.25 0.625 0.5 0.375 0.5 0.625 0.75 0.625 0.75 0.625 1 0.625 0.25 0.625 0.25 0.625 0.5 0.625 0.5 0.625 0.5 0.625 0.75 0.625 0 0.625 0 0.625 0.25 0.625 0.25 0.625 0.25 0.625 0.5 0.625 0.5 0.625 0.5 0.625 0.75 0.625 0 0.625 0 0.625 0.25 0.625 0.75 0.625 0.75 0.625 1 0.625 0 0.625 0 0.625 0.25 0.625 0.75 0.625 0.75 0.625 1 0.625 0.25 0.625 0.25 0.625 0.5 0.625 0.5 0.625 0.5 0.625 0.75 0.625 0.5 0.625 0.25 0.625 0</float_array>
          <technique_common>
            <accessor source="#Cube-mesh-map-0-array" count="108" stride="2">
              <param name="S" type="float"/>
              <param name="T" type="float"/>
            </accessor>
          </technique_common>
        </source>
        <vertices id="Cube-mesh-vertices">
          <input semantic="POSITION" source="#Cube-mesh-positions"/>
        </vertices>
        <triangles material="Material-material" count="36">
          <input semantic="VERTEX" source="#Cube-mesh-vertices" offset="0"/>
          <input semantic="NORMAL" source="#Cube-mesh-normals" offset="1"/>
          <input semantic="TEXCOORD" source="#Cube-mesh-map-0" offset="2" set="0"/>
          <p>2 0 0 7 0 1 3 0 2 6 1 3 5 1 4 7 1 5 1 2 6 7 2 7 5 2 8 0 3 9 3 3 10 1 3 11 4 4 12 1 4 13 5 4 14 2 5 15 11 5 16 6 5 17 4 6 18 8 6 19 0 6 20 0 7 21 9 7 22 2 7 23 6 8 24 10 8 25 4 8 26 10 4 27 12 4 28 8 4 29 8 3 30 13 3 31 9 3 32 11 1 33 14 1 34 10 1 35 9 0 36 15 0 37 11 0 38 15 9 39 18 9 40 14 9 41 13 10 42 19 10 43 15 10 44 14 11 45 16 11 46 12 11 47 12 12 48 17 12 49 13 12 50 16 13 51 19 13 52 17 13 53 2 0 54 6 0 55 7 0 56 6 1 57 4 1 58 5 1 59 1 2 60 3 2 61 7 2 62 0 3 63 2 3 64 3 3 65 4 4 66 0 4 67 1 4 68 2 14 69 9 14 70 11 14 71 4 15 72 10 15 73 8 15 74 0 16 75 8 16 76 9 16 77 6 17 78 11 17 79 10 17 80 10 4 81 14 4 82 12 4 83 8 3 84 12 3 85 13 3 86 11 1 87 15 1 88 14 1 89 9 0 90 13 0 91 15 0 92 15 18 93 19 18 94 18 18 95 13 10 96 17 10 97 19 10 98 14 11 99 18 11 100 16 11 101 12 19 102 16 19 103 17 19 104 16 13 105 18 13 106 19 13 107</p>
        </triangles>
      </mesh>
    </geometry>
  </library_geometries>
  <library_controllers>
    <controller id="Armature_Cube-skin" name="Armature">
      <skin source="#Cube-mesh">
        <bind_shape_matrix>1 0 0 0 0 1 0 0 0 0 1 0 0 0 0 1</bind_shape_matrix>
        <source id="Armature_Cube-skin-joints">
          <Name_array id="Armature_Cube-skin-joints-array" count="3">Bone Bone_001 Bone_002</Name_array>
          <technique_common>
            <accessor source="#Armature_Cube-skin-joints-array" count="3" stride="1">
              <param name="JOINT" type="name"/>
            </accessor>
          </technique_common>
        </source>
        <source id="Armature_Cube-skin-bind_poses">
          <float_array id="Armature_Cube-skin-bind_poses-array" count="48">1 0 0 0 0 0 1 0 0 -1 0 0 0 0 0 1 1 0 0 0 0 0 1 -1 0 -1 0 0 0 0 0 1 1 0 0 0 0 0 1 -2 0 -1 0 0 0 0 0 1</float_array>
          <technique_common>
            <accessor source="#Armature_Cube-skin-bind_poses-array" count="3" stride="16">
              <param name="TRANSFORM" type="float4x4"/>
            </accessor>
          </technique_common>
        </source>
        <source id="Armature_Cube-skin-weights">
          <float_array id="Armature_Cube-skin-weights-array" count="48">0.7833902 0.2070468 0.009562969 0.9656847 0.03431528 0.7834469 0.2070124 0.009540557 0.9664131 0.03358685 0.7834469 0.2070124 0.009540557 0.9664131 0.03358685 0.7833902 0.2070468 0.009562969 0.9656847 0.03431528 0.1454003 0.745498 0.1091017 0.1454102 0.7455131 0.1090767 0.1454102 0.7455131 0.1090767 0.1454003 0.745498 0.1091017 0.007920503 0.1512506 0.8408288 0.008011996 0.1514735 0.8405145 0.008011996 0.1514735 0.8405145 0.007920503 0.1512506 0.8408288 1 1 1 1</float_array>
          <technique_common>
            <accessor source="#Armature_Cube-skin-weights-array" count="48" stride="1">
              <param name="WEIGHT" type="float"/>
            </accessor>
          </technique_common>
        </source>
        <joints>
          <input semantic="JOINT" source="#Armature_Cube-skin-joints"/>
          <input semantic="INV_BIND_MATRIX" source="#Armature_Cube-skin-bind_poses"/>
        </joints>
        <vertex_weights count="20">
          <input semantic="JOINT" source="#Armature_Cube-skin-joints" offset="0"/>
          <input semantic="WEIGHT" source="#Armature_Cube-skin-weights" offset="1"/>
          <vcount>3 2 3 2 3 2 3 2 3 3 3 3 3 3 3 3 1 1 1 1 </vcount>
          <v>0 0 1 1 2 2 0 3 1 4 0 5 1 6 2 7 0 8 1 9 0 10 1 11 2 12 0 13 1 14 0 15 1 16 2 17 0 18 1 19 0 20 1 21 2 22 0 23 1 24 2 25 0 26 1 27 2 28 0 29 1 30 2 31 0 32 1 33 2 34 0 35 1 36 2 37 0 38 1 39 2 40 0 41 1 42 2 43 2 44 2 45 2 46 2 47</v>
        </vertex_weights>
      </skin>
    </controller>
  </library_controllers>
  <library_animations>
    <animation id="action_container-Armature" name="Armature">
      <animation id="Armature_ArmatureAction_Bone_pose_matrix" name="Armature">
        <source id="Armature_ArmatureAction_Bone_pose_matrix-input">
          <float_array id="Armature_ArmatureAction_Bone_pose_matrix-input-array" count="60">0.04166662 0.08333331 0.125 0.1666666 0.2083333 0.25 0.2916666 0.3333333 0.375 0.4166666 0.4583333 0.5 0.5416667 0.5833333 0.625 0.6666667 0.7083333 0.75 0.7916667 0.8333333 0.875 0.9166667 0.9583333 1 1.041667 1.083333 1.125 1.166667 1.208333 1.25 1.291667 1.333333 1.375 1.416667 1.458333 1.5 1.541667 1.583333 1.625 1.666667 1.708333 1.75 1.791667 1.833333 1.875 1.916667 1.958333 2 2.041667 2.083333 2.125 2.166667 2.208333 2.25 2.291667 2.333333 2.375 2.416667 2.458333 2.5</float_array>
          <technique_common>
            <accessor source="#Armature_ArmatureAction_Bone_pose_matrix-input-array" count="60" stride="1">
              <param name="TIME" type="float"/>
            </accessor>
          </technique_common>
        </source>
        <source id="Armature_ArmatureAction_Bone_pose_matrix-output">
          <float_array id="Armature_ArmatureAction_Bone_pose_matrix-output-array" count="960">1 0 0 0 0 0.5094124 -0.8605225 0 0 0.8605225 0.5094124 1.000062 0 0 0 1 1 0 0 0 0 0.5059938 -0.8625371 0 0 0.8625371 0.5059938 0.9965771 0 0 0 1 1 0 0 0 0 0.4959907 -0.8683279 0 0 0.8683279 0.4959907 0.9864489 0 0 0 1 1 0 0 0 0 0.4796998 -0.8774326 0 0 0.8774326 0.4796998 0.9701701 0 0 0 1 1 0 0 0 0 0.4573388 -0.8892925 0 0 0.8892925 0.4573388 0.9482326 0 0 0 1 1 0 0 0 0 0.4290837 -0.9032647 0 0 0.9032647 0.4290837 0.9211285 0 0 0 1 1 0 0 0 0 0.3951074 -0.918635 0 0 0.918635 0.3951074 0.8893499 0 0 0 1 1 0 0 0 0 0.3556159 -0.9346322 0 0 0.9346322 0.3556159 0.8533888 0 0 0 1 1 0 0 0 0 0.3108821 -0.9504485 0 0 0.9504485 0.3108821 0.8137373 0 0 0 1 1 0 0 0 0 0.2612745 -0.9652646 0 0 0.9652646 0.2612745 0.7708874 0 0 0 1 1 0 0 0 0 0.2072799 -0.9782817 0 0 0.9782817 0.2072799 0.7253313 0 0 0 1 1 0 0 0 0 0.1495138 -0.9887596 0 0 0.9887596 0.1495138 0.6775609 0 0 0 1 1 0 0 0 0 0.08872163 -0.9960564 0 0 0.9960564 0.08872163 0.6280682 0 0 0 1 1 0 0 0 0 0.02576382 -0.9996681 0 0 0.9996681 0.02576382 0.5773454 0 0 0 1 1 0 0 0 0 -0.0384095 -0.9992621 0 0 0.9992621 -0.0384095 0.5258846 0 0 0 1 1 0 0 0 0 -0.1027964 -0.9947024 0 0 0.9947024 -0.1027964 0.4741777 0 0 0 1 1 0 0 0 0 -0.1663866 -0.9860606 0 0 0.9860606 -0.1663866 0.4227169 0 0 0 1 1 0 0 0 0 -0.2282069 -0.9736127 0 0 0.9736127 -0.2282069 0.3719942 0 0 0 1 1 0 0 0 0 -0.2873643 -0.9578214 0 0 0.9578214 -0.2873643 0.3225015 0 0 0 1 1 0 0 0 0 -0.3430772 -0.9393072 0 0 0.9393072 -0.3430772 0.274731 0 0 0 1 1 0 0 0 0 -0.3946985 -0.9188107 0 0 0.9188107 -0.3946985 0.229175 0 0 0 1 1 0 0 0 0 -0.4417229 -0.8971515 0 0 0.8971515 -0.4417229 0.1863251 0 0 0 1 1 0 0 0 0 -0.4837813 -0.8751889 0 0 0.8751889 -0.4837813 0.1466736 0 0 0 1 1 0 0 0 0 -0.5206243 -0.8537859 0 0 0.8537859 -0.5206243 0.1107125 0 0 0 1 1 0 0 0 0 -0.5520954 -0.8337809 0 0 0.8337809 -0.5520954 0.07893395 0 0 0 1 1 0 0 0 0 -0.5780995 -0.8159662 0 0 0.8159662 -0.5780995 0.0518297 0 0 0 1 1 0 0 0 0 -0.5985658 -0.8010736 0 0 0.8010736 -0.5985658 0.02989233 0 0 0 1 1 0 0 0 0 -0.6134111 -0.7897637 0 0 0.7897637 -0.6134111 0.01361358 0 0 0 1 1 0 0 0 0 -0.6224984 -0.7826211 0 0 0.7826211 -0.6224984 0.003485441 0 0 0 1 1 0 0 0 0 -0.6255989 -0.7801449 0 0 0.7801449 -0.6255989 0 0 0 0 1 1 0 0 0 0 -0.6226997 -0.7824609 0 0 0.7824609 -0.6226997 0 0 0 0 1 1 0 0 0 0 -0.6141981 -0.789152 0 0 0.789152 -0.6141981 0 0 0 0 1 1 0 0 0 0 -0.6003051 -0.799771 0 0 0.799771 -0.6003051 0 0 0 0 1 1 0 0 0 0 -0.5811498 -0.8137966 0 0 0.8137966 -0.5811498 0 0 0 0 1 1 0 0 0 0 -0.5568111 -0.8306392 0 0 0.8306392 -0.5568111 0 0 0 0 1 1 0 0 0 0 -0.527352 -0.8496469 0 0 0.8496469 -0.527352 0 0 0 0 1 1 0 0 0 0 -0.4928516 -0.8701134 0 0 0.8701134 -0.4928516 0 0 0 0 1 1 0 0 0 0 -0.4534362 -0.8912888 0 0 0.8912888 -0.4534362 0 0 0 0 1 1 0 0 0 0 -0.4093077 -0.9123964 0 0 0.9123964 -0.4093077 0 0 0 0 1 1 0 0 0 0 -0.3607666 -0.9326562 0 0 0.9326562 -0.3607666 0 0 0 0 1 1 0 0 0 0 -0.3082294 -0.9513121 0 0 0.9513121 -0.3082294 0 0 0 0 1 1 0 0 0 0 -0.2522359 -0.9676657 0 0 0.9676657 -0.2522359 0 0 0 0 1 1 0 0 0 0 -0.1934473 -0.9811107 0 0 0.9811107 -0.1934473 0 0 0 0 1 1 0 0 0 0 -0.1326314 -0.9911654 0 0 0.9911654 -0.1326314 0 0 0 0 1 1 0 0 0 0 -0.07063971 -0.9975019 0 0 0.9975019 -0.07063971 0 0 0 0 1 1 0 0 0 0 -0.008373567 -0.999965 0 0 0.999965 -0.008373567 0 0 0 0 1 1 0 0 0 0 0.05325218 -0.9985811 0 0 0.9985811 0.05325218 0 0 0 0 1 1 0 0 0 0 0.113349 -0.9935552 0 0 0.9935552 0.113349 0 0 0 0 1 1 0 0 0 0 0.1710883 -0.9852557 0 0 0.9852557 0.1710883 0 0 0 0 1 1 0 0 0 0 0.2257303 -0.9741898 0 0 0.9741898 0.2257303 0 0 0 0 1 1 0 0 0 0 0.276642 -0.960973 0 0 0.960973 0.276642 0 0 0 0 1 1 0 0 0 0 0.3233048 -0.9462948 0 0 0.9462948 0.3233048 0 0 0 0 1 1 0 0 0 0 0.3653107 -0.9308856 0 0 0.9308856 0.3653107 0 0 0 0 1 1 0 0 0 0 0.4023512 -0.9154854 0 0 0.9154854 0.4023512 0 0 0 0 1 1 0 0 0 0 0.4341952 -0.9008188 0 0 0.9008188 0.4341952 0 0 0 0 1 1 0 0 0 0 0.4606643 -0.8875744 0 0 0.8875744 0.4606643 0 0 0 0 1 1 0 0 0 0 0.4816051 -0.8763883 0 0 0.8763883 0.4816051 0 0 0 0 1 1 0 0 0 0 0.496856 -0.867833 0 0 0.867833 0.496856 0 0 0 0 1 1 0 0 0 0 0.5062158 -0.8624068 0 0 0.8624068 0.5062158 0 0 0 0 1 1 0 0 0 0 0.5094124 -0.8605225 0 0 0.8605225 0.5094124 0 0 0 0 1</float_array>
          <technique_common>
            <accessor source="#Armature_ArmatureAction_Bone_pose_matrix-output-array" count="60" stride="16">
              <param name="TRANSFORM" type="float4x4"/>
            </accessor>
          </technique_common>
        </source>
        <source id="Armature_ArmatureAction_Bone_pose_matrix-interpolation">
          <Name_array id="Armature_ArmatureAction_Bone_pose_matrix-interpolation-array" count="60">LINEAR LINEAR LINEAR LINEAR LINEAR LINEAR LINEAR LINEAR LINEAR LINEAR LINEAR LINEAR LINEAR LINEAR LINEAR LINEAR LINEAR LINEAR LINEAR LINEAR LINEAR LINEAR LINEAR LINEAR LINEAR LINEAR LINEAR LINEAR LINEAR LINEAR LINEAR LINEAR LINEAR LINEAR LINEAR LINEAR LINEAR LINEAR LINEAR LINEAR LINEAR LINEAR LINEAR LINEAR LINEAR LINEAR LINEAR LINEAR LINEAR LINEAR LINEAR LINEAR LINEAR LINEAR LINEAR LINEAR LINEAR LINEAR LINEAR LINEAR</Name_array>
          <technique_common>
            <accessor source="#Armature_ArmatureAction_Bone_pose_matrix-interpolation-array" count="60" stride="1">
              <param name="INTERPOLATION" type="name"/>
            </accessor>
          </technique_common>
        </source>
        <sampler id="Armature_ArmatureAction_Bone_pose_matrix-sampler">
          <input semantic="INPUT" source="#Armature_ArmatureAction_Bone_pose_matrix-input"/>
          <input semantic="OUTPUT" source="#Armature_ArmatureAction_Bone_pose_matrix-output"/>
          <input semantic="INTERPOLATION" source="#Armature_ArmatureAction_Bone_pose_matrix-interpolation"/>
        </sampler>
        <channel source="#Armature_ArmatureAction_Bone_pose_matrix-sampler" target="Armature_Bone/transform"/>
      </animation>
      <animation id="Armature_ArmatureAction_Bone_001_pose_matrix" name="Armature">
        <source id="Armature_ArmatureAction_Bone_001_pose_matrix-input">
          <float_array id="Armature_ArmatureAction_Bone_001_pose_matrix-input-array" count="60">0.04166662 0.08333331 0.125 0.1666666 0.2083333 0.25 0.2916666 0.3333333 0.375 0.4166666 0.4583333 0.5 0.5416667 0.5833333 0.625 0.6666667 0.7083333 0.75 0.7916667 0.8333333 0.875 0.9166667 0.9583333 1 1.041667 1.083333 1.125 1.166667 1.208333 1.25 1.291667 1.333333 1.375 1.416667 1.458333 1.5 1.541667 1.583333 1.625 1.666667 1.708333 1.75 1.791667 1.833333 1.875 1.916667 1.958333 2 2.041667 2.083333 2.125 2.166667 2.208333 2.25 2.291667 2.333333 2.375 2.416667 2.458333 2.5</float_array>
          <technique_common>
            <accessor source="#Armature_ArmatureAction_Bone_001_pose_matrix-input-array" count="60" stride="1">
              <param name="TIME" type="float"/>
            </accessor>
          </technique_common>
        </source>
        <source id="Armature_ArmatureAction_Bone_001_pose_matrix-output">
          <float_array id="Armature_ArmatureAction_Bone_001_pose_matrix-output-array" count="960">1 0 0 0 0 0.6055366 -0.7958175 1 0 0.7958175 0.6055366 -2.98023e-8 0 0 0 1 1 0 0 0 0 0.6103522 -0.7921302 1 0 0.7921302 0.6103522 2.98023e-8 0 0 0 1 1 0 0 0 0 0.624312 -0.781175 1 0 0.781175 0.624312 5.96046e-8 0 0 0 1 1 0 0 0 0 0.6466231 -0.7628098 1 0 0.7628098 0.6466231 -2.98023e-8 0 0 0 1 1 0 0 0 0 0.6763719 -0.7365602 0.9999999 0 0.7365602 0.6763719 -2.98023e-8 0 0 0 1 1 0 0 0 0 0.7124627 -0.70171 1 0 0.70171 0.7124627 2.98023e-8 0 0 0 1 1 0 0 0 0 0.7535442 -0.6573973 1 0 0.6573973 0.7535442 -2.98023e-8 0 0 0 1 1 0 0 0 0 0.7979408 -0.602736 1 0 0.602736 0.7979408 0 0 0 0 1 1 0 0 0 0 0.8436034 -0.5369668 1 0 0.5369668 0.8436034 2.98023e-8 0 0 0 1 1 0 0 0 0 0.8881054 -0.4596399 1 0 0.4596399 0.8881054 0 0 0 0 1 1 0 0 0 0 0.9287069 -0.3708144 1 0 0.3708144 0.9287069 1.49012e-8 0 0 0 1 1 0 0 0 0 0.9625098 -0.2712471 1 0 0.2712471 0.9625098 0 0 0 0 1 1 -2.24844e-16 0 0 2.24844e-16 0.9867048 -0.1625237 1 0 0.1625237 0.9867048 -7.45058e-9 0 0 0 1 1 -2.271e-16 0 0 2.271e-16 0.9988912 -0.04707912 1 0 0.04707912 0.9988912 0 0 0 0 1 1 -2.27826e-16 0 0 2.27826e-16 0.9974098 0.07192872 0.9999999 0 -0.07192872 0.9974098 0 0 0 0 1 1 -2.26923e-16 0 0 2.26923e-16 0.98161 0.1908973 1 0 -0.1908973 0.98161 7.45058e-9 0 0 0 1 1 -2.24419e-16 0 0 2.24419e-16 0.951978 0.3061666 1 0 -0.3061666 0.951978 1.49012e-8 0 0 0 1 1 0 0 0 0 0.9100819 0.4144284 0.9999999 0 -0.4144284 0.9100819 2.98023e-8 0 0 0 1 1 0 0 0 0 0.8583479 0.5130681 0.9999999 0 -0.5130681 0.8583479 2.98023e-8 0 0 0 1 1 0 0 0 0 0.7997289 0.6003613 0.9999999 0 -0.6003613 0.7997289 0 0 0 0 1 1 0 0 0 0 0.7373503 0.6755105 1 0 -0.6755105 0.7373503 -2.98023e-8 0 0 0 1 1 0 0 0 0 0.674208 0.7385414 1 0 -0.7385414 0.674208 0 0 0 0 1 1 0 0 0 0 0.6129619 0.7901126 0.9999999 0 -0.7901126 0.6129619 2.98023e-8 0 0 0 1 1 0 0 0 0 0.5558373 0.8312908 0.9999999 0 -0.8312908 0.5558373 2.98023e-8 0 0 0 1 1 0 0 0 0 0.5046139 0.8633451 1 0 -0.8633451 0.5046139 0 0 0 0 1 1 0 0 0 0 0.4606778 0.8875675 1 0 -0.8875675 0.4606778 0 0 0 0 1 1 0 0 0 0 0.4251092 0.9051421 1 0 -0.9051421 0.4251092 0 0 0 0 1 1 0 0 0 0 0.3987778 0.9170477 1 0 -0.9170477 0.3987778 0 0 0 0 1 1 0 0 0 0 0.3824425 0.9239794 1 0 -0.9239794 0.3824425 0 0 0 0 1 1 0 0 0 0 0.3768314 0.9262819 1 0 -0.9262819 0.3768314 0 0 0 0 1 1 0 0 0 0 0.3820786 0.9241298 1 0 -0.9241298 0.3820786 0 0 0 0 1 1 0 0 0 0 0.3973698 0.9176586 1 0 -0.9176586 0.3973698 -2.98023e-8 0 0 0 1 1 0 0 0 0 0.4220472 0.906574 1 0 -0.906574 0.4220472 2.98023e-8 0 0 0 1 1 0 0 0 0 0.4554314 0.8902708 1 0 -0.8902708 0.4554314 0 0 0 0 1 1 2.22275e-16 0 0 -2.22275e-16 0.4967528 0.8678921 1 0 -0.8678921 0.4967528 0 0 0 0 1 1 2.28907e-16 0 0 -2.28907e-16 0.5450709 0.8383898 0.9999999 0 -0.8383898 0.5450709 0 0 0 0 1 1 2.3629e-16 0 0 -2.3629e-16 0.5991918 0.8006055 1 0 -0.8006055 0.5991918 0 0 0 0 1 1 2.44196e-16 0 0 -2.44196e-16 0.6575904 0.7533756 1 0 -0.7533756 0.6575904 0 0 0 0 1 1 2.52341e-16 0 0 -2.52341e-16 0.7183592 0.6956724 1 0 -0.6956724 0.7183592 0 0 0 0 1 1 2.60392e-16 0 0 -2.60392e-16 0.779201 0.6267741 1 0 -0.6267741 0.779201 0 0 0 0 1 1 2.67969e-16 0 0 -2.67969e-16 0.8374887 0.5464548 1 0 -0.5464548 0.8374887 0 0 0 0 1 1 2.74675e-16 0 0 -2.74674e-16 0.8904114 0.4551567 1 0 -0.4551567 0.8904114 0 0 0 0 1 1 2.80125e-16 0 0 -2.80125e-16 0.9352028 0.3541126 1 0 -0.3541126 0.9352028 0 0 0 0 1 1 2.83992e-16 0 0 -2.83992e-16 0.9694312 0.2453637 1 0 -0.2453637 0.9694312 1.49012e-8 0 0 0 1 1 2.86044e-16 0 0 -2.86044e-16 0.9912963 0.1316501 1 0 -0.1316501 0.9912963 0 0 0 0 1 1 2.86179e-16 0 0 -2.86179e-16 0.9998692 0.01617104 1 0 -0.01617104 0.9998692 0 0 0 0 1 1 2.84435e-16 0 0 -2.84435e-16 0.9952118 -0.09774192 1 0 0.09774192 0.9952118 0 0 0 0 1 1 2.8099e-16 0 0 -2.8099e-16 0.9783464 -0.2069743 1 0 0.2069743 0.9783464 0 0 0 0 1 1 2.76128e-16 0 0 -2.76128e-16 0.9510877 -0.3089211 1 0 0.3089211 0.9510877 0 0 0 0 1 1 2.70202e-16 0 0 -2.70202e-16 0.9157845 -0.4016701 1 0 0.4016701 0.9157845 0 0 0 0 1 1 2.63594e-16 0 0 -2.63594e-16 0.875035 -0.4840598 1 0 0.4840598 0.875035 0 0 0 0 1 1 2.56682e-16 0 0 -2.56682e-16 0.8314334 -0.5556244 1 0 0.5556244 0.8314334 0 0 0 0 1 1 2.49807e-16 0 0 -2.49807e-16 0.7873868 -0.6164594 1 0 0.6164594 0.7873868 -2.98023e-8 0 0 0 1 1 2.43267e-16 0 0 -2.43267e-16 0.7450037 -0.6670603 1 0 0.6670603 0.7450037 0 0 0 0 1 1 2.37309e-16 0 0 -2.37309e-16 0.7060608 -0.7081511 1 0 0.7081511 0.7060608 0 0 0 0 1 1 2.32133e-16 0 0 -2.32133e-16 0.6720129 -0.7405393 1 0 0.7405393 0.6720129 0 0 0 0 1 1 2.27901e-16 0 0 -2.27901e-16 0.6440411 -0.764991 1 0 0.764991 0.6440411 0 0 0 0 1 1 2.24746e-16 0 0 -2.24746e-16 0.6231125 -0.7821323 1 0 0.7821323 0.6231125 0 0 0 0 1 1 2.22779e-16 0 0 -2.22779e-16 0.6100405 -0.7923704 1 0 0.7923704 0.6100405 0 0 0 0 1 1 0 0 0 0 0.6055366 -0.7958175 1 0 0.7958175 0.6055366 0 0 0 0 1</float_array>
          <technique_common>
            <accessor source="#Armature_ArmatureAction_Bone_001_pose_matrix-output-array" count="60" stride="16">
              <param name="TRANSFORM" type="float4x4"/>
            </accessor>
          </technique_common>
        </source>
        <source id="Armature_ArmatureAction_Bone_001_pose_matrix-interpolation">
          <Name_array id="Armature_ArmatureAction_Bone_001_pose_matrix-interpolation-array" count="60">LINEAR LINEAR LINEAR LINEAR LINEAR LINEAR LINEAR LINEAR LINEAR LINEAR LINEAR LINEAR LINEAR LINEAR LINEAR LINEAR LINEAR LINEAR LINEAR LINEAR LINEAR LINEAR LINEAR LINEAR LINEAR LINEAR LINEAR LINEAR LINEAR LINEAR LINEAR LINEAR LINEAR LINEAR LINEAR LINEAR LINEAR LINEAR LINEAR LINEAR LINEAR LINEAR LINEAR LINEAR LINEAR LINEAR LINEAR LINEAR LINEAR LINEAR LINEAR LINEAR LINEAR LINEAR LINEAR LINEAR LINEAR LINEAR LINEAR LINEAR</Name_array>
          <technique_common>
            <accessor source="#Armature_ArmatureAction_Bone_001_pose_matrix-interpolation-array" count="60" stride="1">
              <param name="INTERPOLATION" type="name"/>
            </accessor>
          </technique_common>
        </source>
        <sampler id="Armature_ArmatureAction_Bone_001_pose_matrix-sampler">
          <input semantic="INPUT" source="#Armature_ArmatureAction_Bone_001_pose_matrix-input"/>
          <input semantic="OUTPUT" source="#Armature_ArmatureAction_Bone_001_pose_matrix-output"/>
          <input semantic="INTERPOLATION" source="#Armature_ArmatureAction_Bone_001_pose_matrix-interpolation"/>
        </sampler>
        <channel source="#Armature_ArmatureAction_Bone_001_pose_matrix-sampler" target="Armature_Bone_001/transform"/>
      </animation>
      <animation id="Armature_ArmatureAction_Bone_002_pose_matrix" name="Armature">
        <source id="Armature_ArmatureAction_Bone_002_pose_matrix-input">
          <float_array id="Armature_ArmatureAction_Bone_002_pose_matrix-input-array" count="60">0.04166662 0.08333331 0.125 0.1666666 0.2083333 0.25 0.2916666 0.3333333 0.375 0.4166666 0.4583333 0.5 0.5416667 0.5833333 0.625 0.6666667 0.7083333 0.75 0.7916667 0.8333333 0.875 0.9166667 0.9583333 1 1.041667 1.083333 1.125 1.166667 1.208333 1.25 1.291667 1.333333 1.375 1.416667 1.458333 1.5 1.541667 1.583333 1.625 1.666667 1.708333 1.75 1.791667 1.833333 1.875 1.916667 1.958333 2 2.041667 2.083333 2.125 2.166667 2.208333 2.25 2.291667 2.333333 2.375 2.416667 2.458333 2.5</float_array>
          <technique_common>
            <accessor source="#Armature_ArmatureAction_Bone_002_pose_matrix-input-array" count="60" stride="1">
              <param name="TIME" type="float"/>
            </accessor>
          </technique_common>
        </source>
        <source id="Armature_ArmatureAction_Bone_002_pose_matrix-output">
          <float_array id="Armature_ArmatureAction_Bone_002_pose_matrix-output-array" count="960">1 0 0 0 0 0.2477522 0.9688234 1 0 -0.9688234 0.2477522 -5.96046e-8 0 0 0 1 1 0 0 0 0 0.2543546 0.9671112 1 0 -0.9671112 0.2543546 6.70552e-8 0 0 0 1 1 0 0 0 0 0.2736755 0.9618222 1 0 -0.9618222 0.2736755 7.45058e-8 0 0 0 1 1 2.25176e-16 0 0 -2.25176e-16 0.3051322 0.95231 0.9999998 0 -0.95231 0.3051322 1.19209e-7 0 0 0 1 1 2.32736e-16 0 0 -2.32736e-16 0.3482351 0.9374073 1 0 -0.9374073 0.3482351 1.11759e-7 0 0 0 1 1 2.4225e-16 0 0 -2.42249e-16 0.4024349 0.9154485 0.9999998 0 -0.9154485 0.4024349 6.70552e-8 0 0 0 1 1 2.53583e-16 0 0 -2.53583e-16 0.4669254 0.8842968 0.9999998 0 -0.8842968 0.4669254 5.96046e-8 0 0 0 1 1 2.66515e-16 0 0 -2.66515e-16 0.5404016 0.8414071 0.9999999 0 -0.8414071 0.5404016 -7.45058e-9 0 0 0 1 1 2.80691e-16 0 0 -2.80691e-16 0.6207823 0.783983 1 0 -0.783983 0.6207823 1.49012e-8 0 0 0 1 1 2.9557e-16 0 0 -2.9557e-16 0.7049369 0.7092701 0.9999999 0 -0.7092701 0.7049369 0 0 0 0 1 1 3.10398e-16 0 0 -3.10398e-16 0.7884997 0.6150352 1 0 -0.6150352 0.7884997 3.72529e-9 0 0 0 1 1 3.24206e-16 0 0 -3.24206e-16 0.8659028 0.5002124 1 0 -0.5002124 0.8659028 -3.72529e-9 0 0 0 1 1 3.35879e-16 0 0 -3.35879e-16 0.930768 0.3656103 1 0 -0.3656103 0.930768 0 0 0 0 1 1 3.44298e-16 0 0 -3.44298e-16 0.9767351 0.2144495 1 0 -0.2144495 0.9767351 1.39698e-9 0 0 0 1 1 3.48546e-16 0 0 -3.48546e-16 0.9986247 0.05243 1 0 -0.05243 0.9986247 1.86265e-9 0 0 0 1 1 3.48108e-16 0 0 -3.48108e-16 0.9936086 -0.1128805 1 0 0.1128805 0.9936086 -1.86265e-8 0 0 0 1 1 3.43007e-16 0 0 -3.43007e-16 0.961936 -0.2732747 1 0 0.2732747 0.961936 0 0 0 0 1 1 3.33795e-16 0 0 -3.33795e-16 0.9068888 -0.4213701 0.9999999 0 0.4213701 0.9068888 -7.45058e-9 0 0 0 1 1 3.21421e-16 0 0 -3.21421e-16 0.8339819 -0.5517919 1 0 0.5517919 0.8339819 1.11759e-8 0 0 0 1 1 3.07018e-16 0 0 -3.07018e-16 0.7497594 -0.6617106 1 0 0.6617106 0.7497594 2.23517e-8 0 0 0 1 1 2.91705e-16 0 0 -2.91705e-16 0.6606367 -0.7507057 0.9999999 0 0.7507057 0.6606367 -7.45058e-8 0 0 0 1 1 2.76444e-16 0 0 -2.76444e-16 0.5721077 -0.8201786 1 0 0.8201786 0.5721077 -8.19564e-8 0 0 0 1 1 2.61978e-16 0 0 -2.61978e-16 0.4883928 -0.8726237 0.9999999 0 0.8726237 0.4883928 -7.45058e-9 0 0 0 1 1 2.4883e-16 0 0 -2.4883e-16 0.4124513 -0.9109797 1 0 0.9109797 0.4124513 0 0 0 0 1 1 2.37342e-16 0 0 -2.37342e-16 0.3461905 -0.9381642 0.9999998 0 0.9381642 0.3461905 7.45058e-9 0 0 0 1 1 2.27721e-16 0 0 -2.27721e-16 0.2907592 -0.9567962 0.9999999 0 0.9567962 0.2907592 -1.49012e-8 0 0 0 1 1 0 0 0 0 0.2468322 -0.9690583 1 0 0.9690583 0.2468322 8.19564e-8 0 0 0 1 1 0 0 0 0 0.214857 -0.9766455 0.9999998 0 0.9766455 0.214857 -7.45058e-8 0 0 0 1 1 0 0 0 0 0.1952502 -0.9807535 1 0 0.9807535 0.1952502 -6.70552e-8 0 0 0 1 1 0 0 0 0 0.1885568 -0.9820622 0.9999999 0 0.9820622 0.1885568 1.49012e-8 0 0 0 1 1 0 0 0 0 0.1948161 -0.9808397 1 0 0.9808397 0.1948161 7.45058e-9 0 0 0 1 1 -2.22506e-16 0 0 2.22506e-16 0.2131601 -0.9770173 1 0 0.9770173 0.2131601 7.45058e-9 0 0 0 1 1 -2.2791e-16 0 0 2.2791e-16 0.2430905 -0.9700038 1 0 0.9700038 0.2430905 4.47035e-8 0 0 0 1 1 -2.35333e-16 0 0 2.35333e-16 0.2842267 -0.9587572 0.9999999 0 0.9587572 0.2842267 -3.72529e-8 0 0 0 1 1 -2.44699e-16 0 0 2.447e-16 0.3361776 -0.9417987 1 0 0.9417987 0.3361776 -3.72529e-8 0 0 0 1 1 -2.55902e-16 0 0 2.55903e-16 0.3983791 -0.917221 1 0 0.917221 0.3983791 2.98023e-8 0 0 0 1 1 -2.68766e-16 0 0 2.68766e-16 0.4698929 -0.8827233 0.9999999 0 0.8827233 0.4698929 4.47035e-8 0 0 0 1 1 -2.83001e-16 0 0 2.83001e-16 0.5491694 -0.8357111 1 0 0.8357111 0.5491694 -9.68575e-8 0 0 0 1 1 -2.98165e-16 0 0 2.98165e-16 0.6337983 -0.7734982 1 0 0.7734982 0.6337983 7.45058e-9 0 0 0 1 1 -3.13619e-16 0 0 3.13619e-16 0.7203012 -0.6936615 0.9999999 0 0.6936615 0.7203012 -3.72529e-9 0 0 0 1 1 -3.28524e-16 0 0 3.28524e-16 0.8040621 -0.5945454 1 0 0.5945454 0.8040621 1.49012e-8 0 0 0 1 1 -3.41869e-16 0 0 3.41869e-16 0.8795123 -0.4758762 1 0 0.4758762 0.8795123 2.23517e-8 0 0 0 1 1 -3.52575e-16 0 0 3.52575e-16 0.9406675 -0.3393301 1 0 0.3393301 0.9406675 -7.45058e-9 0 0 0 1 1 -3.59653e-16 0 0 3.59653e-16 0.9820104 -0.1888272 1 0 0.1888272 0.9820104 7.45058e-9 0 0 0 1 1 -3.62393e-16 0 0 3.62393e-16 0.99954 -0.03032876 0.9999999 0 0.03032876 0.99954 -8.3819e-9 0 0 0 1 1 -3.60526e-16 0 0 3.60526e-16 0.9916523 0.1289409 1 0 -0.1289409 0.9916523 -7.567e-10 0 0 0 1 1 -3.54283e-16 0 0 3.54283e-16 0.9595103 0.2816737 1 0 -0.2816737 0.9595103 -3.72529e-9 0 0 0 1 1 -3.44337e-16 0 0 3.44337e-16 0.9067463 0.4216765 1 0 -0.4216765 0.9067463 3.72529e-9 0 0 0 1 1 -3.31657e-16 0 0 3.31657e-16 0.83863 0.5447016 1 0 -0.5447016 0.83863 7.45058e-9 0 0 0 1 1 -3.1731e-16 0 0 3.1731e-16 0.7610323 0.6487139 0.9999999 0 -0.6487139 0.7610323 4.09782e-8 0 0 0 1 1 -3.02309e-16 0 0 3.02309e-16 0.6795294 0.7336485 1 0 -0.7336485 0.6795294 -5.58794e-8 0 0 0 1 1 -2.87501e-16 0 0 2.87501e-16 0.5988281 0.8008776 1 0 -0.8008776 0.5988281 -2.23517e-8 0 0 0 1 1 -2.73537e-16 0 0 2.73537e-16 0.5225479 0.85261 1 0 -0.85261 0.5225479 2.98023e-8 0 0 0 1 1 -2.60876e-16 0 0 2.60875e-16 0.453257 0.89138 1 0 -0.89138 0.453257 -6.70552e-8 0 0 0 1 1 -2.49818e-16 0 0 2.49818e-16 0.3926602 0.9196838 1 0 -0.9196838 0.3926602 -4.47035e-8 0 0 0 1 1 -2.40553e-16 0 0 2.40553e-16 0.3418328 0.9397609 1 0 -0.9397609 0.3418328 -5.96046e-8 0 0 0 1 1 -2.33199e-16 0 0 2.33199e-16 0.3014547 0.9534805 1 0 -0.9534805 0.3014547 -2.23517e-8 0 0 0 1 1 -2.27838e-16 0 0 2.27838e-16 0.2720048 0.9622958 1 0 -0.9622958 0.2720048 5.21541e-8 0 0 0 1 1 -2.24549e-16 0 0 2.24549e-16 0.2539254 0.9672239 0.9999999 0 -0.9672239 0.2539254 7.45058e-8 0 0 0 1 1 0 0 0 0 0.2477522 0.9688234 0.9999999 0 -0.9688234 0.2477522 0 0 0 0 1</float_array>
          <technique_common>
            <accessor source="#Armature_ArmatureAction_Bone_002_pose_matrix-output-array" count="60" stride="16">
              <param name="TRANSFORM" type="float4x4"/>
            </accessor>
          </technique_common>
        </source>
        <source id="Armature_ArmatureAction_Bone_002_pose_matrix-interpolation">
          <Name_array id="Armature_ArmatureAction_Bone_002_pose_matrix-interpolation-array" count="60">LINEAR LINEAR LINEAR LINEAR LINEAR LINEAR LINEAR LINEAR LINEAR LINEAR LINEAR LINEAR LINEAR LINEAR LINEAR LINEAR LINEAR LINEAR LINEAR LINEAR LINEAR LINEAR LINEAR LINEAR LINEAR LINEAR LINEAR LINEAR LINEAR LINEAR LINEAR LINEAR LINEAR LINEAR LINEAR LINEAR LINEAR LINEAR LINEAR LINEAR LINEAR LINEAR LINEAR LINEAR LINEAR LINEAR LINEAR LINEAR LINEAR LINEAR LINEAR LINEAR LINEAR LINEAR LINEAR LINEAR LINEAR LINEAR LINEAR LINEAR</Name_array>
          <technique_common>
            <accessor source="#Armature_ArmatureAction_Bone_002_pose_matrix-interpolation-array" count="60" stride="1">
              <param name="INTERPOLATION" type="name"/>
            </accessor>
          </technique_common>
        </source>
        <sampler id="Armature_ArmatureAction_Bone_002_pose_matrix-sampler">
          <input semantic="INPUT" source="#Armature_ArmatureAction_Bone_002_pose_matrix-input"/>
          <input semantic="OUTPUT" source="#Armature_ArmatureAction_Bone_002_pose_matrix-output"/>
          <input semantic="INTERPOLATION" source="#Armature_ArmatureAction_Bone_002_pose_matrix-interpolation"/>
        </sampler>
        <channel source="#Armature_ArmatureAction_Bone_002_pose_matrix-sampler" target="Armature_Bone_002/transform"/>
      </animation>
    </animation>
  </library_animations>
  <library_visual_scenes>
    <visual_scene id="Scene" name="Scene">
      <node id="Armature" name="Armature" type="NODE">
        <matrix sid="transform">1 0 0 0 0 1 0 0 0 0 1 0 0 0 0 1</matrix>
        <node id="Armature_Bone" name="Bone" sid="Bone" type="JOINT">
          <matrix sid="transform">1 0 0 0 0 0 -1 0 0 1 0 0 0 0 0 1</matrix>
          <node id="Armature_Bone_001" name="Bone.001" sid="Bone_001" type="JOINT">
            <matrix sid="transform">1 0 0 0 0 1 0 1 0 0 1 0 0 0 0 1</matrix>
            <node id="Armature_Bone_002" name="Bone.002" sid="Bone_002" type="JOINT">
              <matrix sid="transform">1 0 0 0 0 1 0 1 0 0 1 0 0 0 0 1</matrix>
              <extra>
                <technique profile="blender">
                  <connect sid="connect" type="bool">1</connect>
                  <layer sid="layer" type="string">0</layer>
                  <tip_x sid="tip_x" type="float">0</tip_x>
                  <tip_y sid="tip_y" type="float">0</tip_y>
                  <tip_z sid="tip_z" type="float">1</tip_z>
                </technique>
              </extra>
            </node>
            <extra>
              <technique profile="blender">
                <connect sid="connect" type="bool">1</connect>
                <layer sid="layer" type="string">0</layer>
              </technique>
            </extra>
          </node>
          <extra>
            <technique profile="blender">
              <layer sid="layer" type="string">0</layer>
            </technique>
          </extra>
        </node>
        <node id="Cube" name="Cube" type="NODE">
          <matrix sid="transform">1 0 0 0 0 1 0 0 0 0 1 0 0 0 0 1</matrix>
          <instance_controller url="#Armature_Cube-skin">
            <skeleton>#Armature_Bone</skeleton>
            <bind_material>
              <technique_common>
                <instance_material symbol="Material-material" target="#Material-material">
                  <bind_vertex_input semantic="UVMap" input_semantic="TEXCOORD" input_set="0"/>
                </instance_material>
              </technique_common>
            </bind_material>
          </instance_controller>
        </node>
      </node>
    </visual_scene>
  </library_visual_scenes>
  <scene>
    <instance_visual_scene url="#Scene"/>
  </scene>
</COLLADA>