<?xml version="1.0" encoding="utf-8"?>
<COLLADA xmlns="http://www.collada.org/2005/11/COLLADASchema" version="1.4.1" xmlns:xsi="http://www.w3.org/2001/XMLSchema-instance">
  <asset>
    <contributor>
      <author>Blender User</author>
      <authoring_tool>Blender 3.3.1 commit date:2022-10-04, commit time:18:35, hash:b292cfe5a936</authoring_tool>
    </contributor>
    <created>2025-07-10T23:33:45</created>
    <modified>2025-07-10T23:33:45</modified>
    <unit name="meter" meter="1"/>
    <up_axis>Z_UP</up_axis>
  </asset>
  <library_effects>
    <effect id="Material-effect">
      <profile_COMMON>
        <technique sid="common">
          <lambert>
            <emission>
              <color sid="emission">0 0 0 1</color>
            </emission>
            <diffuse>
              <color sid="diffuse">0.8 0.8 0.8 1</color>
            </diffuse>
            <index_of_refraction>
              <float sid="ior">1.45</float>
            </index_of_refraction>
          </lambert>
        </technique>
      </profile_COMMON>
    </effect>
  </library_effects>
  <library_images/>
  <library_materials>
    <material id="Material-material" name="Material">
      <instance_effect url="#Material-effect"/>
    </material>
  </library_materials>
  <library_geometries>
    <geometry id="Cube-mesh" name="Cube">
      <mesh>
        <source id="Cube-mesh-positions">
          <float_array id="Cube-mesh-positions-array" count="60">1 1 1.013787 1 1 -1 1 -1 1.013787 1 -1 -1 -1 1 1.013787 -1 1 -1 -1 -1 1.013787 -1 -1 -1 0.5363538 0.5363538 1.652833 0.5363538 -0.5363538 1.652833 -0.5363538 0.5363538 1.652833 -0.5363538 -0.5363538 1.652833 0.5363538 0.5363538 2.461607 0.5363538 -0.5363538 2.461607 -0.5363538 0.5363538 2.461607 -0.5363538 -0.5363538 2.461607 0.2144029 0.2144029 2.996253 0.2144029 -0.2144029 2.996253 -0.2144029 0.2144029 2.996253 -0.2144029 -0.2144029 2.996253</float_array>
          <technique_common>
            <accessor source="#Cube-mesh-positions-array" count="20" stride="3">
              <param name="X" type="float"/>
              <param name="Y" type="float"/>
              <param name="Z" type="float"/>
            </accessor>
          </technique_common>
        </source>
        <source id="Cube-mesh-normals">
          <float_array id="Cube-mesh-normals-array" count="60">0 -1 0 -1 0 0 0 0 -1 1 0 0 0 1 0 0 -0.8094072 0.5872479 0 0.8094072 0.5872479 0.8094072 0 0.587248 -0.8094072 0 0.587248 -0.8566691 0 0.5158664 0 -0.8566692 0.5158662 0 0.8566692 0.5158662 0.8566691 0 0.5158664 0 0 1 0 -0.8094072 0.5872477 0 0.8094072 0.5872477 0.8094074 0 0.5872477 -0.8094074 0 0.5872477 -0.8566694 0 0.5158658 0.8566694 0 0.5158658</float_array>
          <technique_common>
            <accessor source="#Cube-mesh-normals-array" count="20" stride="3">
              <param name="X" type="float"/>
              <param name="Y" type="float"/>
              <param name="Z" type="float"/>
            </accessor>
          </technique_common>
        </source>
        <source id="Cube-mesh-map-0">
          <float_array id="Cube-mesh-map-0-array" count="216">0.625 0.75 0.375 1 0.375 0.75 0.625 0 0.375 0.25 0.375 0 0.375 0.5 0.125 0.75 0.125 0.5 0.625 0.5 0.375 0.75 0.375 0.5 0.625 0.25 0.375 0.5 0.375 0.25 0.625 0.75 0.625 1 0.625 1 0.625 0.25 0.625 0.5 0.625 0.5 0.625 0.5 0.625 0.75 0.625 0.75 0.625 0 0.625 0.25 0.625 0.25 0.625 0.25 0.625 0.5 0.625 0.5 0.625 0.5 0.625 0.75 0.625 0.75 0.625 0 0.625 0.25 0.625 0.25 0.625 0.75 0.625 1 0.625 1 0.625 0 0.625 0.25 0.625 0.25 0.625 0.75 0.625 1 0.625 1 0.625 0.25 0.625 0.5 0.625 0.5 0.625 0.5 0.625 0.75 0.625 0.75 0.625 0.5 0.625 0 0.625 0.75 0.625 0.75 0.625 1 0.375 1 0.625 0 0.625 0.25 0.375 0.25 0.375 0.5 0.375 0.75 0.125 0.75 0.625 0.5 0.625 0.75 0.375 0.75 0.625 0.25 0.625 0.5 0.375 0.5 0.625 0.75 0.625 0.75 0.625 1 0.625 0.25 0.625 0.25 0.625 0.5 0.625 0.5 0.625 0.5 0.625 0.75 0.625 0 0.625 0 0.625 0.25 0.625 0.25 0.625 0.25 0.625 0.5 0.625 0.5 0.625 0.5 0.625 0.75 0.625 0 0.625 0 0.625 0.25 0.625 0.75 0.625 0.75 0.625 1 0.625 0 0.625 0 0.625 0.25 0.625 0.75 0.625 0.75 0.625 1 0.625 0.25 0.625 0.25 0.625 0.5 0.625 0.5 0.625 0.5 0.625 0.75 0.625 0.5 0.625 0.25 0.625 0</float_array>
          <technique_common>
            <accessor source="#Cube-mesh-map-0-array" count="108" stride="2">
              <param name="S" type="float"/>
              <param name="T" type="float"/>
            </accessor>
          </technique_common>
        </source>
        <vertices id="Cube-mesh-vertices">
          <input semantic="POSITION" source="#Cube-mesh-positions"/>
        </vertices>
        <triangles material="Material-material" count="36">
          <input semantic="VERTEX" source="#Cube-mesh-vertices" offset="0"/>
          <input semantic="NORMAL" source="#Cube-mesh-normals" offset="1"/>
          <input semantic="TEXCOORD" source="#Cube-mesh-map-0" offset="2" set="0"/>
          <p>2 0 0 7 0 1 3 0 2 6 1 3 5 1 4 7 1 5 1 2 6 7 2 7 5 2 8 0 3 9 3 3 10 1 3 11 4 4 12 1 4 13 5 4 14 2 5 15 11 5 16 6 5 17 4 6 18 8 6 19 0 6 20 0 7 21 9 7 22 2 7 23 6 8 24 10 8 25 4 8 26 10 4 27 12 4 28 8 4 29 8 3 30 13 3 31 9 3 32 11 1 33 14 1 34 10 1 35 9 0 36 15 0 37 11 0 38 15 9 39 18 9 40 14 9 41 13 10 42 19 10 43 15 10 44 14 11 45 16 11 46 12 11 47 12 12 48 17 12 49 13 12 50 16 13 51 19 13 52 17 13 53 2 0 54 6 0 55 7 0 56 6 1 57 4 1 58 5 1 59 1 2 60 3 2 61 7 2 62 0 3 63 2 3 64 3 3 65 4 4 66 0 4 67 1 4 68 2 14 69 9 14 70 11 14 71 4 15 72 10 15 73 8 15 74 0 16 75 8 16 76 9 16 77 6 17 78 11 17 79 10 17 80 10 4 81 14 4 82 12 4 83 8 3 84 12 3 85 13 3 86 11 1 87 15 1 88 14 1 89 9 0 90 13 0 91 15 0 92 15 18 93 19 18 94 18 18 95 13 10 96 17 10 97 19 10 98 14 11 99 18 11 100 16 11 101 12 19 102 16 19 103 17 19 104 16 13 105 18 13 106 19 13 107</p>
        </triangles>
      </mesh>
    </geometry>
  </library_geometries>
  <library_controllers>
    <controller id="Armature_Cube-skin" name="Armature">
      <skin source="#Cube-mesh">
        <bind_shape_matrix>1 0 0 0 0 1 0 0 0 0 1 0 0 0 0 1</bind_shape_matrix>
        <source id="Armature_Cube-skin-joints">
          <Name_array id="Armature_Cube-skin-joints-array" count="3">Bone Bone_001 Bone_002</Name_array>
          <technique_common>
            <accessor source="#Armature_Cube-skin-joints-array" count="3" stride="1">
              <param name="JOINT" type="name"/>
            </accessor>
          </technique_common>
        </source>
        <source id="Armature_Cube-skin-bind_poses">
          <float_array id="Armature_Cube-skin-bind_poses-array" count="48">1 0 0 0 0 0.7070325 0.7071811 -0.002382874 0 -0.7071811 0.7070325 -0.00729978 0 0 0 1 1 1.68149e-7 1.69025e-7 -2.3899e-7 0 -0.7089424 0.7052664 -0.004799604 2.38418e-7 -0.7052664 -0.7089425 1.002398 0 0 0 1 1 0 0 0 0 0 1 -1.413934 0 -1 0 0 0 0 0 1</float_array>
          <technique_common>
            <accessor source="#Armature_Cube-skin-bind_poses-array" count="3" stride="16">
              <param name="TRANSFORM" type="float4x4"/>
            </accessor>
          </technique_common>
        </source>
        <source id="Armature_Cube-skin-weights">
          <float_array id="Armature_Cube-skin-weights-array" count="43">2.78278e-7 0.9999501 4.96121e-5 0.9999797 1.3392e-5 6.86386e-6 0 0.9999732 2.68028e-5 0.9967385 0 0.003261387 0 1 0 0.999993 6.95291e-6 0 0.9998639 1.36157e-4 0.9775601 0.02001291 0.002426981 0.9999848 1.52978e-5 0.9999995 4.89902e-7 0.9999922 7.85057e-6 0.9997804 2.19632e-4 0 1 5.53438e-7 0.9999995 5.03173e-5 0.9999497 9.8095e-7 0.9999991 1 1 1 1</float_array>
          <technique_common>
            <accessor source="#Armature_Cube-skin-weights-array" count="43" stride="1">
              <param name="WEIGHT" type="float"/>
            </accessor>
          </technique_common>
        </source>
        <joints>
          <input semantic="JOINT" source="#Armature_Cube-skin-joints"/>
          <input semantic="INV_BIND_MATRIX" source="#Armature_Cube-skin-bind_poses"/>
        </joints>
        <vertex_weights count="20">
          <input semantic="JOINT" source="#Armature_Cube-skin-joints" offset="0"/>
          <input semantic="WEIGHT" source="#Armature_Cube-skin-weights" offset="1"/>
          <vcount>3 3 3 3 3 2 3 3 2 2 2 2 2 2 2 2 1 1 1 1 </vcount>
          <v>0 0 1 1 2 2 0 3 1 4 2 5 0 6 1 7 2 8 0 9 1 10 2 11 0 12 1 13 2 14 0 15 1 16 0 17 1 18 2 19 0 20 1 21 2 22 1 23 2 24 1 25 2 26 1 27 2 28 1 29 2 30 1 31 2 32 1 33 2 34 1 35 2 36 1 37 2 38 2 39 2 40 2 41 2 42</v>
        </vertex_weights>
      </skin>
    </controller>
  </library_controllers>
  <library_animations>
    <animation id="action_container-Armature" name="Armature">
      <animation id="Armature_ArmatureAction_Bone_pose_matrix" name="Armature">
        <source id="Armature_ArmatureAction_Bone_pose_matrix-input">
          <float_array id="Armature_ArmatureAction_Bone_pose_matrix-input-array" count="60">0.04166662 0.08333331 0.125 0.1666666 0.2083333 0.25 0.2916666 0.3333333 0.375 0.4166666 0.4583333 0.5 0.5416667 0.5833333 0.625 0.6666667 0.7083333 0.75 0.7916667 0.8333333 0.875 0.9166667 0.9583333 1 1.041667 1.083333 1.125 1.166667 1.208333 1.25 1.291667 1.333333 1.375 1.416667 1.458333 1.5 1.541667 1.583333 1.625 1.666667 1.708333 1.75 1.791667 1.833333 1.875 1.916667 1.958333 2 2.041667 2.083333 2.125 2.166667 2.208333 2.25 2.291667 2.333333 2.375 2.416667 2.458333 2.5</float_array>
          <technique_common>
            <accessor source="#Armature_ArmatureAction_Bone_pose_matrix-input-array" count="60" stride="1">
              <param name="TIME" type="float"/>
            </accessor>
          </technique_common>
        </source>
        <source id="Armature_ArmatureAction_Bone_pose_matrix-output">
          <float_array id="Armature_ArmatureAction_Bone_pose_matrix-output-array" count="960">1 0 0 0 0 0.7070324 -0.7071811 -0.003477484 0 0.7071811 0.7070324 0.006846368 0 0 0 1 1 0 0 0 0 0.7050823 -0.7091255 -0.003477484 0 0.7091255 0.7050823 0.006846368 0 0 0 1 1 0 0 0 0 0.6993789 -0.7147511 -0.003477484 0 0.7147511 0.6993789 0.006846368 0 0 0 1 1 0 0 0 0 0.6900985 -0.7237154 -0.003477484 0 0.7237154 0.6900985 0.006846368 0 0 0 1 1 0 0 0 0 0.6773732 -0.7356395 -0.003477484 0 0.7356395 0.6773732 0.006846368 0 0 0 1 1 0 0 0 0 0.6613089 -0.7501137 -0.003477484 0 0.7501137 0.6613089 0.006846368 0 0 0 1 1 0 0 0 0 0.6420015 -0.7667034 -0.003477484 0 0.7667034 0.6420015 0.006846368 0 0 0 1 1 0 0 0 0 0.6195536 -0.7849544 -0.003477484 0 0.7849544 0.6195536 0.006846368 0 0 0 1 1 0 0 0 0 0.594088 -0.8044 -0.003477484 0 0.8044 0.594088 0.006846368 0 0 0 1 1 0 0 0 0 0.5657604 -0.8245697 -0.003477484 0 0.8245697 0.5657604 0.006846368 0 0 0 1 1 0 0 0 0 0.5347691 -0.8449982 -0.003477484 0 0.8449982 0.5347691 0.006846368 0 0 0 1 1 0 0 0 0 0.501362 -0.8652376 -0.003477484 0 0.8652376 0.501362 0.006846368 0 0 0 1 1 0 0 0 0 0.4658406 -0.8848687 -0.003477484 0 0.8848687 0.4658406 0.006846368 0 0 0 1 1 0 0 0 0 0.4285591 -0.9035137 -0.003477484 0 0.9035137 0.4285591 0.006846368 0 0 0 1 1 0 0 0 0 0.3899227 -0.9208475 -0.003477484 0 0.9208475 0.3899227 0.006846368 0 0 0 1 1 0 0 0 0 0.3503794 -0.9366078 -0.003477484 0 0.9366078 0.3503794 0.006846368 0 0 0 1 1 0 0 0 0 0.3104119 -0.9506022 -0.003477484 0 0.9506022 0.3104119 0.006846368 0 0 0 1 1 0 0 0 0 0.2705261 -0.9627126 -0.003477484 0 0.9627126 0.2705261 0.006846368 0 0 0 1 1 0 0 0 0 0.2312395 -0.9728968 -0.003477484 0 0.9728968 0.2312395 0.006846368 0 0 0 1 1 0 0 0 0 0.1930694 -0.9811851 -0.003477484 0 0.9811851 0.1930694 0.006846368 0 0 0 1 1 0 0 0 0 0.1565224 -0.9876744 -0.003477484 0 0.9876744 0.1565224 0.006846368 0 0 0 1 1 0 0 0 0 0.1220871 -0.9925194 -0.003477484 0 0.9925194 0.1220871 0.006846368 0 0 0 1 1 0 0 0 0 0.09022704 -0.9959213 -0.003477484 0 0.9959213 0.09022704 0.006846368 0 0 0 1 1 0 0 0 0 0.06137934 -0.9981145 -0.003477484 0 0.9981145 0.06137934 0.006846368 0 0 0 1 1 0 0 0 0 0.03595382 -0.9993534 -0.003477484 0 0.9993534 0.03595382 0.006846368 0 0 0 1 1 0 0 0 0 0.01433742 -0.9998972 -0.003477484 0 0.9998972 0.01433742 0.006846368 0 0 0 1 1 0 0 0 0 -0.003101051 -0.9999951 -0.003477484 0 0.9999951 -0.003101051 0.006846368 0 0 0 1 1 0 0 0 0 -0.01600361 -0.999872 -0.003477484 0 0.999872 -0.01600361 0.006846368 0 0 0 1 1 0 0 0 0 -0.02401289 -0.9997116 -0.003477484 0 0.9997116 -0.02401289 0.006846368 0 0 0 1 1 0 0 0 0 -0.02676591 -0.9996417 -0.003477484 0 0.9996417 -0.02676591 0.006846368 0 0 0 1 1 0 0 0 0 -0.02419165 -0.9997074 -0.003477484 0 0.9997074 -0.02419165 0.006846368 0 0 0 1 1 0 0 0 0 -0.01669371 -0.9998606 -0.003477484 0 0.9998606 -0.01669371 0.006846368 0 0 0 1 1 0 0 0 0 -0.004601449 -0.9999894 -0.003477484 0 0.9999894 -0.004601449 0.006846368 0 0 0 1 1 0 0 0 0 0.01176307 -0.9999307 -0.003477484 0 0.9999307 0.01176307 0.006846368 0 0 0 1 1 0 0 0 0 0.03207645 -0.9994854 -0.003477484 0 0.9994854 0.03207645 0.006846368 0 0 0 1 1 0 0 0 0 0.05600777 -0.9984304 -0.003477484 0 0.9984304 0.05600777 0.006846368 0 0 0 1 1 0 0 0 0 0.08321109 -0.9965319 -0.003477484 0 0.9965319 0.08321109 0.006846368 0 0 0 1 1 0 0 0 0 0.1133208 -0.9935585 -0.003477484 0 0.9935585 0.1133208 0.006846368 0 0 0 1 1 0 0 0 0 0.1459486 -0.9892921 -0.003477484 0 0.9892921 0.1459486 0.006846368 0 0 0 1 1 0 0 0 0 0.1806821 -0.9835415 -0.003477484 0 0.9835415 0.1806821 0.006846368 0 0 0 1 1 0 0 0 0 0.217087 -0.9761523 -0.003477484 0 0.9761523 0.217087 0.006846368 0 0 0 1 1 0 0 0 0 0.2547105 -0.9670173 -0.003477484 0 0.9670173 0.2547105 0.006846368 0 0 0 1 1 0 0 0 0 0.2930878 -0.9560855 -0.003477484 0 0.9560855 0.2930878 0.006846368 0 0 0 1 1 0 0 0 0 0.3317504 -0.9433672 -0.003477484 0 0.9433672 0.3317504 0.006846368 0 0 0 1 1 0 0 0 0 0.3702349 -0.9289382 -0.003477484 0 0.9289382 0.3702349 0.006846368 0 0 0 1 1 0 0 0 0 0.4080941 -0.9129398 -0.003477484 0 0.9129398 0.4080941 0.006846368 0 0 0 1 1 0 0 0 0 0.4449057 -0.8955775 -0.003477484 0 0.8955775 0.4449057 0.006846368 0 0 0 1 1 0 0 0 0 0.4802814 -0.8771145 -0.003477484 0 0.8771145 0.4802814 0.006846368 0 0 0 1 1 0 0 0 0 0.5138739 -0.8578657 -0.003477484 0 0.8578657 0.5138739 0.006846368 0 0 0 1 1 0 0 0 0 0.5453813 -0.8381881 -0.003477484 0 0.8381881 0.5453813 0.006846368 0 0 0 1 1 0 0 0 0 0.5745483 -0.8184707 -0.003477484 0 0.8184707 0.5745483 0.006846368 0 0 0 1 1 0 0 0 0 0.6011657 -0.7991244 -0.003477484 0 0.7991244 0.6011657 0.006846368 0 0 0 1 1 0 0 0 0 0.6250662 -0.7805717 -0.003477484 0 0.7805717 0.6250662 0.006846368 0 0 0 1 1 0 0 0 0 0.6461177 -0.7632377 -0.003477484 0 0.7632377 0.6461177 0.006846368 0 0 0 1 1 0 0 0 0 0.6642141 -0.7475424 -0.003477484 0 0.7475424 0.6642141 0.006846368 0 0 0 1 1 0 0 0 0 0.679265 -0.733893 -0.003477484 0 0.733893 0.679265 0.006846368 0 0 0 1 1 0 0 0 0 0.6911834 -0.7226794 -0.003477484 0 0.7226794 0.6911834 0.006846368 0 0 0 1 1 0 0 0 0 0.699872 -0.7142683 -0.003477484 0 0.7142683 0.699872 0.006846368 0 0 0 1 1 0 0 0 0 0.7052089 -0.7089995 -0.003477484 0 0.7089995 0.7052089 0.006846368 0 0 0 1 1 0 0 0 0 0.7070324 -0.7071811 -0.003477484 0 0.7071811 0.7070324 0.006846368 0 0 0 1</float_array>
          <technique_common>
            <accessor source="#Armature_ArmatureAction_Bone_pose_matrix-output-array" count="60" stride="16">
              <param name="TRANSFORM" type="float4x4"/>
            </accessor>
          </technique_common>
        </source>
        <source id="Armature_ArmatureAction_Bone_pose_matrix-interpolation">
          <Name_array id="Armature_ArmatureAction_Bone_pose_matrix-interpolation-array" count="60">LINEAR LINEAR LINEAR LINEAR LINEAR LINEAR LINEAR LINEAR LINEAR LINEAR LINEAR LINEAR LINEAR LINEAR LINEAR LINEAR LINEAR LINEAR LINEAR LINEAR LINEAR LINEAR LINEAR LINEAR LINEAR LINEAR LINEAR LINEAR LINEAR LINEAR LINEAR LINEAR LINEAR LINEAR LINEAR LINEAR LINEAR LINEAR LINEAR LINEAR LINEAR LINEAR LINEAR LINEAR LINEAR LINEAR LINEAR LINEAR LINEAR LINEAR LINEAR LINEAR LINEAR LINEAR LINEAR LINEAR LINEAR LINEAR LINEAR LINEAR</Name_array>
          <technique_common>
            <accessor source="#Armature_ArmatureAction_Bone_pose_matrix-interpolation-array" count="60" stride="1">
              <param name="INTERPOLATION" type="name"/>
            </accessor>
          </technique_common>
        </source>
        <sampler id="Armature_ArmatureAction_Bone_pose_matrix-sampler">
          <input semantic="INPUT" source="#Armature_ArmatureAction_Bone_pose_matrix-input"/>
          <input semantic="OUTPUT" source="#Armature_ArmatureAction_Bone_pose_matrix-output"/>
          <input semantic="INTERPOLATION" source="#Armature_ArmatureAction_Bone_pose_matrix-interpolation"/>
        </sampler>
        <channel source="#Armature_ArmatureAction_Bone_pose_matrix-sampler" target="Armature_Bone/transform"/>
      </animation>
      <animation id="Armature_ArmatureAction_Bone_001_pose_matrix" name="Armature">
        <source id="Armature_ArmatureAction_Bone_001_pose_matrix-input">
          <float_array id="Armature_ArmatureAction_Bone_001_pose_matrix-input-array" count="60">0.04166662 0.08333331 0.125 0.1666666 0.2083333 0.25 0.2916666 0.3333333 0.375 0.4166666 0.4583333 0.5 0.5416667 0.5833333 0.625 0.6666667 0.7083333 0.75 0.7916667 0.8333333 0.875 0.9166667 0.9583333 1 1.041667 1.083333 1.125 1.166667 1.208333 1.25 1.291667 1.333333 1.375 1.416667 1.458333 1.5 1.541667 1.583333 1.625 1.666667 1.708333 1.75 1.791667 1.833333 1.875 1.916667 1.958333 2 2.041667 2.083333 2.125 2.166667 2.208333 2.25 2.291667 2.333333 2.375 2.416667 2.458333 2.5</float_array>
          <technique_common>
            <accessor source="#Armature_ArmatureAction_Bone_001_pose_matrix-input-array" count="60" stride="1">
              <param name="TIME" type="float"/>
            </accessor>
          </technique_common>
        </source>
        <source id="Armature_ArmatureAction_Bone_001_pose_matrix-output">
          <float_array id="Armature_ArmatureAction_Bone_001_pose_matrix-output-array" count="960">1 0 2.38418e-7 0 2.38418e-7 -0.002494216 -0.9999968 1 5.94675e-10 0.9999969 -0.002494216 -5.96046e-8 0 0 0 1 1 -6.85801e-10 2.38417e-7 0 2.38418e-7 3.82185e-4 -0.9999998 1 5.94689e-10 0.9999999 3.82215e-4 -5.96046e-8 0 0 0 1 1 -2.681e-9 2.38403e-7 0 2.38418e-7 0.008750767 -0.9999617 1 5.94675e-10 0.9999617 0.008750886 5.96046e-8 0 0 0 1 1 -5.89473e-9 2.38346e-7 0 2.38418e-7 0.02223071 -0.9997528 1 5.94689e-10 0.9997528 0.02223077 0 0 0 0 1 1 -1.02377e-8 2.38199e-7 0 2.38418e-7 0.0404478 -0.9991816 0.9999999 5.94682e-10 0.9991816 0.04044786 2.98023e-8 0 0 0 1 1 -1.56197e-8 2.37906e-7 0 2.38418e-7 0.0630247 -0.9980118 1 5.94682e-10 0.9980119 0.06302482 0 0 0 0 1 1 -2.19477e-8 2.37406e-7 0 2.38418e-7 0.08957145 -0.9959804 1 5.94675e-10 0.9959803 0.08957151 0 0 0 0 1 1 -2.91236e-8 2.36633e-7 0 2.38418e-7 0.1196774 -0.9928129 1 5.94689e-10 0.9928128 0.1196775 0 0 0 0 1 1 -3.70429e-8 2.35523e-7 0 2.38418e-7 0.152905 -0.9882408 1 5.94689e-10 0.9882408 0.1529051 -2.98023e-8 0 0 0 1 1 -4.55941e-8 2.34018e-7 0 2.38418e-7 0.1887867 -0.9820181 1 5.94675e-10 0.982018 0.1887867 -2.98023e-8 0 0 0 1 1 -5.46582e-8 2.32069e-7 0 2.38418e-7 0.2268248 -0.9739356 1 5.94689e-10 0.9739356 0.2268248 2.98023e-8 0 0 0 1 1 -6.41103e-8 2.29637e-7 0 2.38418e-7 0.2664948 -0.9638364 1 5.94682e-10 0.9638364 0.2664948 0 0 0 0 1 1 -7.38202e-8 2.26702e-7 0 2.38418e-7 0.3072519 -0.9516282 1 5.94682e-10 0.9516282 0.3072519 -2.98023e-8 0 0 0 1 1 -8.36559e-8 2.2326e-7 0 2.38418e-7 0.3485416 -0.9372933 1 5.94689e-10 0.9372934 0.3485416 0 0 0 0 1 1 -9.34855e-8 2.19326e-7 0 2.38418e-7 0.3898112 -0.9208949 1 5.94689e-10 0.9208949 0.3898112 2.98023e-8 0 0 0 1 1 -1.03181e-7 2.14935e-7 0 2.38418e-7 0.4305238 -0.9025792 1 5.94675e-10 0.9025792 0.4305238 -2.98023e-8 0 0 0 1 1 -1.12622e-7 2.10142e-7 0 2.38418e-7 0.4701711 -0.8825752 0.9999999 5.94689e-10 0.8825752 0.4701712 0 0 0 0 1 1 -1.21697e-7 2.0502e-7 0 2.38418e-7 0.5082878 -0.8611872 1 5.94675e-10 0.8611872 0.5082878 0 0 0 0 1 1 -1.30308e-7 1.99658e-7 0 2.38418e-7 0.5444598 -0.8387868 1 5.94685e-10 0.8387869 0.5444598 0 0 0 0 1 1 -1.3837e-7 1.94158e-7 0 2.38418e-7 0.5783323 -0.8158012 1 5.94685e-10 0.8158011 0.5783324 0 0 0 0 1 1 -1.45814e-7 1.88631e-7 0 2.38418e-7 0.6096137 -0.7926987 1 5.94682e-10 0.7926987 0.6096137 -1.49012e-8 0 0 0 1 1 -1.52586e-7 1.83197e-7 0 2.38418e-7 0.6380724 -0.7699763 1 5.94682e-10 0.7699763 0.6380725 0 0 0 0 1 1 -1.58643e-7 1.77976e-7 0 2.38418e-7 0.6635352 -0.748145 1 5.94682e-10 0.7481449 0.6635352 -7.45058e-9 0 0 0 1 1 -1.63958e-7 1.73093e-7 0 2.38418e-7 0.6858767 -0.7277176 1 5.94682e-10 0.7277177 0.6858768 0 0 0 0 1 1 -1.68508e-7 1.68667e-7 0 2.38418e-7 0.705007 -0.7092005 1 5.94682e-10 0.7092004 0.705007 0 0 0 0 1 1 -1.72278e-7 1.64814e-7 0 2.38418e-7 0.7208588 -0.693082 1 5.94682e-10 0.693082 0.7208588 9.31323e-10 0 0 0 1 1 -1.75253e-7 1.61647e-7 0 2.38418e-7 0.7333706 -0.6798291 1 5.94682e-10 0.6798291 0.7333707 0 0 0 0 1 1 -1.77416e-7 1.5927e-7 0 2.38418e-7 0.742469 -0.6698804 1 5.94682e-10 0.6698804 0.742469 -1.86265e-9 0 0 0 1 1 -1.78743e-7 1.5778e-7 0 2.38418e-7 0.7480489 -0.6636436 1 5.94682e-10 0.6636435 0.748049 0 0 0 0 1 1 0 2.38418e-7 0 1.57711e-7 0.7499547 -0.6614893 1 -1.78803e-7 0.6614892 0.7499548 0 0 0 0 1 1 5.84564e-10 2.38682e-7 0 1.57929e-7 0.7481726 -0.6635041 0.9999999 -1.78963e-7 0.6635041 0.7481727 1.86265e-9 0 0 0 1 1 2.29106e-9 2.39442e-7 0 1.58567e-7 0.7429518 -0.6693451 1 -1.79427e-7 0.669345 0.7429518 0 0 0 0 1 1 5.05572e-9 2.40638e-7 0 1.59603e-7 0.7344353 -0.6786786 1 -1.80164e-7 0.6786785 0.7344353 0 0 0 0 1 1 8.82162e-9 2.42201e-7 0 1.61019e-7 0.7227214 -0.6911396 1 -1.81141e-7 0.6911395 0.7227215 -1.86265e-9 0 0 0 1 1 1.35353e-8 2.44053e-7 0 1.62802e-7 0.7078779 -0.7063347 1 -1.8232e-7 0.7063346 0.707878 1.86265e-9 0 0 0 1 1 1.91436e-8 2.46108e-7 0 1.64936e-7 0.6899619 -0.7238457 1 -1.83662e-7 0.7238457 0.689962 -3.72529e-9 0 0 0 1 1 2.5591e-8 2.48277e-7 0 1.67406e-7 0.6690313 -0.7432341 1 -1.85125e-7 0.7432341 0.6690313 0 0 0 0 1 1 3.28168e-8 2.50467e-7 0 1.70196e-7 0.6451614 -0.7640463 1 -1.86665e-7 0.7640463 0.6451614 0 0 0 0 1 1 4.0753e-8 2.52589e-7 0 1.73285e-7 0.6184563 -0.7858192 1 -1.8824e-7 0.7858192 0.6184564 -1.49012e-8 0 0 0 1 1 4.9323e-8 2.54556e-7 0 1.76649e-7 0.5890599 -0.8080893 1 -1.89806e-7 0.8080893 0.5890599 -1.49012e-8 0 0 0 1 1 5.84408e-8 2.56287e-7 0 1.8026e-7 0.5571635 -0.8304027 1 -1.91323e-7 0.8304027 0.5571636 0 0 0 0 1 1 6.8011e-8 2.57713e-7 0 1.84085e-7 0.5230113 -0.8523258 1 -1.92754e-7 0.8523258 0.5230114 0 0 0 0 1 1 7.79291e-8 2.58776e-7 0 1.88085e-7 0.4869019 -0.8734566 1 -1.94066e-7 0.8734566 0.4869019 -2.98023e-8 0 0 0 1 1 8.80837e-8 2.59431e-7 0 1.92219e-7 0.4491878 -0.8934373 1 -1.9523e-7 0.8934373 0.4491879 0 0 0 0 1 1 9.83578e-8 2.59652e-7 0 1.96441e-7 0.4102694 -0.9119643 1 -1.96226e-7 0.9119642 0.4102696 0 0 0 0 1 1 1.08632e-7 2.59431e-7 0 2.00701e-7 0.3705892 -0.9287969 1 -1.97039e-7 0.928797 0.3705892 0 0 0 0 1 1 1.18787e-7 2.58776e-7 0 2.0495e-7 0.3306195 -0.9437642 1 -1.97663e-7 0.9437642 0.3306195 0 0 0 0 1 1 1.28705e-7 2.57713e-7 0 2.09137e-7 0.2908539 -0.9567674 1 -1.98097e-7 0.9567674 0.290854 0 0 0 0 1 1 1.38275e-7 2.56287e-7 0 2.13213e-7 0.2517937 -0.9677808 1 -1.98351e-7 0.9677808 0.2517937 -2.98023e-8 0 0 0 1 1 1.47393e-7 2.54556e-7 0 2.17129e-7 0.2139376 -0.9768473 1 -1.98439e-7 0.9768473 0.2139377 -2.98023e-8 0 0 0 1 1 1.55963e-7 2.52589e-7 0 2.2084e-7 0.1777726 -0.9840716 1 -1.98382e-7 0.9840716 0.1777726 0 0 0 0 1 1 1.63899e-7 2.50467e-7 0 2.24302e-7 0.1437648 -0.9896119 1 -1.98205e-7 0.9896118 0.1437649 2.98023e-8 0 0 0 1 1 1.71125e-7 2.48277e-7 0 2.27477e-7 0.1123569 -0.993668 1 -1.97937e-7 0.993668 0.1123569 0 0 0 0 1 1 1.77572e-7 2.46108e-7 0 2.3033e-7 0.08396387 -0.9964688 1 -1.97609e-7 0.9964688 0.08396393 -2.98023e-8 0 0 0 1 1 1.8318e-7 2.44053e-7 0 2.32825e-7 0.05897546 -0.9982594 1 -1.97255e-7 0.9982594 0.05897546 0 0 0 0 1 1 1.87894e-7 2.42201e-7 0 2.34934e-7 0.03775871 -0.9992868 1 -1.96905e-7 0.9992868 0.03775871 0 0 0 0 1 1 1.9166e-7 2.40638e-7 0 2.36626e-7 0.02066347 -0.9997864 0.9999999 -1.96591e-7 0.9997864 0.02066347 2.98023e-8 0 0 0 1 1 1.94425e-7 2.39442e-7 0 2.37873e-7 0.008029819 -0.9999677 1 -1.96341e-7 0.9999678 0.008029908 0 0 0 0 1 1 1.96131e-7 2.38682e-7 0 2.38644e-7 1.95712e-4 -0.9999999 1 -1.96178e-7 0.9999999 1.95831e-4 0 0 0 0 1 1 0 2.38418e-7 0 2.38418e-7 -0.002494216 -0.9999968 1 5.94675e-10 0.9999969 -0.002494216 -5.96046e-8 0 0 0 1</float_array>
          <technique_common>
            <accessor source="#Armature_ArmatureAction_Bone_001_pose_matrix-output-array" count="60" stride="16">
              <param name="TRANSFORM" type="float4x4"/>
            </accessor>
          </technique_common>
        </source>
        <source id="Armature_ArmatureAction_Bone_001_pose_matrix-interpolation">
          <Name_array id="Armature_ArmatureAction_Bone_001_pose_matrix-interpolation-array" count="60">LINEAR LINEAR LINEAR LINEAR LINEAR LINEAR LINEAR LINEAR LINEAR LINEAR LINEAR LINEAR LINEAR LINEAR LINEAR LINEAR LINEAR LINEAR LINEAR LINEAR LINEAR LINEAR LINEAR LINEAR LINEAR LINEAR LINEAR LINEAR LINEAR LINEAR LINEAR LINEAR LINEAR LINEAR LINEAR LINEAR LINEAR LINEAR LINEAR LINEAR LINEAR LINEAR LINEAR LINEAR LINEAR LINEAR LINEAR LINEAR LINEAR LINEAR LINEAR LINEAR LINEAR LINEAR LINEAR LINEAR LINEAR LINEAR LINEAR LINEAR</Name_array>
          <technique_common>
            <accessor source="#Armature_ArmatureAction_Bone_001_pose_matrix-interpolation-array" count="60" stride="1">
              <param name="INTERPOLATION" type="name"/>
            </accessor>
          </technique_common>
        </source>
        <sampler id="Armature_ArmatureAction_Bone_001_pose_matrix-sampler">
          <input semantic="INPUT" source="#Armature_ArmatureAction_Bone_001_pose_matrix-input"/>
          <input semantic="OUTPUT" source="#Armature_ArmatureAction_Bone_001_pose_matrix-output"/>
          <input semantic="INTERPOLATION" source="#Armature_ArmatureAction_Bone_001_pose_matrix-interpolation"/>
        </sampler>
        <channel source="#Armature_ArmatureAction_Bone_001_pose_matrix-sampler" target="Armature_Bone_001/transform"/>
      </animation>
      <animation id="Armature_ArmatureAction_Bone_002_pose_matrix" name="Armature">
        <source id="Armature_ArmatureAction_Bone_002_pose_matrix-input">
          <float_array id="Armature_ArmatureAction_Bone_002_pose_matrix-input-array" count="60">0.04166662 0.08333331 0.125 0.1666666 0.2083333 0.25 0.2916666 0.3333333 0.375 0.4166666 0.4583333 0.5 0.5416667 0.5833333 0.625 0.6666667 0.7083333 0.75 0.7916667 0.8333333 0.875 0.9166667 0.9583333 1 1.041667 1.083333 1.125 1.166667 1.208333 1.25 1.291667 1.333333 1.375 1.416667 1.458333 1.5 1.541667 1.583333 1.625 1.666667 1.708333 1.75 1.791667 1.833333 1.875 1.916667 1.958333 2 2.041667 2.083333 2.125 2.166667 2.208333 2.25 2.291667 2.333333 2.375 2.416667 2.458333 2.5</float_array>
          <technique_common>
            <accessor source="#Armature_ArmatureAction_Bone_002_pose_matrix-input-array" count="60" stride="1">
              <param name="TIME" type="float"/>
            </accessor>
          </technique_common>
        </source>
        <source id="Armature_ArmatureAction_Bone_002_pose_matrix-output">
          <float_array id="Armature_ArmatureAction_Bone_002_pose_matrix-output-array" count="960">1 1.69025e-7 -1.68149e-7 -1.84119e-14 -2.43378e-14 0.7052664 0.7089424 0.9924006 2.38418e-7 -0.7089424 0.7052664 7.71721e-8 0 0 0 1 1 1.68579e-7 -1.68596e-7 4.996e-15 -2.226e-14 0.7071425 0.7070709 0.9924006 2.38418e-7 -0.7070709 0.7071425 -3.96976e-8 0 0 0 1 1 1.67274e-7 -1.6989e-7 2.70894e-14 -2.4758e-14 0.7125719 0.7015991 0.9924006 2.38418e-7 -0.701599 0.7125719 6.61239e-8 0 0 0 1 1 1.65152e-7 -1.71954e-7 -4.44089e-15 -2.4647e-14 0.7212262 0.6926998 0.9924008 2.38418e-7 -0.6926998 0.7212262 7.35745e-8 0 0 0 1 1 1.62245e-7 -1.74699e-7 -1.15463e-14 -2.88658e-14 0.7327431 0.6805052 0.9924006 2.38418e-7 -0.6805052 0.7327431 -8.56817e-8 0 0 0 1 1 1.58578e-7 -1.78035e-7 5.32907e-15 -2.66454e-14 0.7467334 0.6651233 0.9924006 2.38418e-7 -0.6651234 0.7467334 1.19209e-7 0 0 0 1 1 1.54174e-7 -1.81862e-7 1.77636e-14 -2.66454e-14 0.7627842 0.6466531 0.9924006 2.38418e-7 -0.6466531 0.7627842 -3.72529e-8 0 0 0 1 1 1.49059e-7 -1.86077e-7 -7.10543e-15 -3.01981e-14 0.7804655 0.6251989 0.9924007 2.38418e-7 -0.6251988 0.7804655 -5.96046e-8 0 0 0 1 1 1.43262e-7 -1.90577e-7 -3.19744e-14 -2.13163e-14 0.7993368 0.6008834 0.9924006 2.38418e-7 -0.6008835 0.7993368 6.70552e-8 0 0 0 1 1 1.36819e-7 -1.95254e-7 2.84217e-14 -1.59872e-14 0.818954 0.5738593 0.9924006 2.38418e-7 -0.5738592 0.8189539 7.45058e-9 0 0 0 1 1 1.29775e-7 -2.00004e-7 -2.84217e-14 -2.30926e-14 0.8388793 0.5443175 0.9924006 2.38418e-7 -0.5443175 0.8388793 -3.72529e-8 0 0 0 1 1 1.22188e-7 -2.04728e-7 3.55271e-14 -1.42109e-14 0.8586909 0.5124938 0.9924006 2.38418e-7 -0.5124938 0.8586909 -5.96046e-8 0 0 0 1 1 1.14124e-7 -2.0933e-7 3.55271e-14 -1.06581e-14 0.8779933 0.4786728 0.9924006 2.38418e-7 -0.4786728 0.8779933 4.47035e-8 0 0 0 1 1 1.05664e-7 -2.13725e-7 -1.42109e-14 -1.42109e-14 0.896429 0.4431872 0.9924006 2.38418e-7 -0.4431872 0.8964291 -5.96046e-8 0 0 0 1 1 9.68971e-8 -2.1784e-7 -1.42109e-14 -2.4869e-14 0.9136883 0.4064158 0.9924006 2.38418e-7 -0.4064158 0.9136882 1.19209e-7 0 0 0 1 1 8.79234e-8 -2.21614e-7 1.42109e-14 -7.10543e-15 0.9295177 0.3687775 0.9924008 2.38418e-7 -0.3687775 0.9295177 -8.9407e-8 0 0 0 1 1 7.88506e-8 -2.25002e-7 1.42109e-14 -1.77636e-14 0.9437276 0.3307236 0.9924005 2.38418e-7 -0.3307236 0.9437276 1.49012e-7 0 0 0 1 1 6.97918e-8 -2.27975e-7 -1.42109e-14 -1.42109e-14 0.9561956 0.2927282 0.9924006 2.38418e-7 -0.2927282 0.9561956 1.19209e-7 0 0 0 1 1 6.08629e-8 -2.30519e-7 2.84217e-14 -1.77636e-14 0.9668679 0.2552775 0.9924006 2.38418e-7 -0.2552775 0.9668678 -1.19209e-7 0 0 0 1 1 5.21803e-8 -2.32638e-7 2.84217e-14 -3.55271e-15 0.9757563 0.21886 0.9924007 2.38418e-7 -0.2188601 0.9757563 0 0 0 0 1 1 4.38588e-8 -2.3435e-7 -1.42109e-14 -2.13163e-14 0.9829342 0.1839571 0.9924006 2.38418e-7 -0.1839571 0.9829342 2.98023e-8 0 0 0 1 1 3.60096e-8 -2.35683e-7 -2.84217e-14 -2.13163e-14 0.9885283 0.1510352 0.9924005 2.38418e-7 -0.1510352 0.9885284 -2.98023e-8 0 0 0 1 1 2.87392e-8 -2.3668e-7 4.26326e-14 -1.42109e-14 0.9927082 0.1205411 0.9924006 2.38418e-7 -0.1205411 0.9927083 5.96046e-8 0 0 0 1 1 2.21488e-8 -2.37387e-7 0 -1.42109e-14 0.9956756 0.09289873 0.9924006 2.38418e-7 -0.0928987 0.9956756 5.96046e-8 0 0 0 1 1 1.63337e-8 -2.37858e-7 -1.42109e-14 -2.4869e-14 0.9976506 0.0685086 0.9924006 2.38418e-7 -0.0685086 0.9976505 5.96046e-8 0 0 0 1 1 1.13847e-8 -2.38146e-7 0 -1.77636e-14 0.9988591 0.04775119 0.9924006 2.38418e-7 -0.04775119 0.9988591 8.9407e-8 0 0 0 1 1 7.38876e-9 -2.38304e-7 -5.68434e-14 -1.77636e-14 0.9995196 0.03099072 0.9924006 2.38418e-7 -0.03099072 0.9995197 -2.98023e-8 0 0 0 1 1 4.43001e-9 -2.38377e-7 0 -2.4869e-14 0.9998273 0.01858097 0.9924005 2.38418e-7 -0.01858097 0.9998273 -5.96046e-8 0 0 0 1 1 2.59244e-9 -2.38404e-7 -1.42109e-14 -2.84217e-14 0.9999409 0.01087338 0.9924006 2.38418e-7 -0.01087341 0.9999409 -5.96046e-8 0 0 0 1 1 1.9607e-9 -2.3841e-7 2.84217e-14 -2.92833e-14 0.9999663 0.008223742 0.9924006 2.38418e-7 -0.008223683 0.9999663 0 0 0 0 1 1 2.55156e-9 -2.38405e-7 -1.42109e-14 -2.72421e-14 0.9999428 0.01070198 0.9924007 2.38418e-7 -0.01070198 0.9999428 0 0 0 0 1 1 4.27183e-9 -2.3838e-7 0 -3.29181e-14 0.9998393 0.01791728 0.9924005 2.38418e-7 -0.01791731 0.9998394 0 0 0 0 1 1 7.04486e-9 -2.38314e-7 -3.55271e-14 -2.95319e-14 0.9995633 0.02954826 0.9924006 2.38418e-7 -0.02954829 0.9995633 5.96046e-8 0 0 0 1 1 1.07951e-8 -2.38174e-7 -7.10543e-15 -3.33067e-14 0.9989744 0.04527789 0.9924007 2.38418e-7 -0.04527786 0.9989743 -1.49012e-7 0 0 0 1 1 1.54464e-8 -2.37918e-7 0 -3.68594e-14 0.9978992 0.06478667 0.9924006 2.38418e-7 -0.0647867 0.9978991 -8.9407e-8 0 0 0 1 1 2.09207e-8 -2.37499e-7 1.42109e-14 -2.84217e-14 0.9961427 0.08774787 0.9924006 2.38418e-7 -0.08774784 0.9961427 2.98023e-8 0 0 0 1 1 2.71371e-8 -2.36869e-7 2.13163e-14 -3.19744e-14 0.9935013 0.1138211 0.9924006 2.38418e-7 -0.1138211 0.9935013 5.96046e-8 0 0 0 1 1 3.401e-8 -2.3598e-7 -4.26326e-14 -3.55271e-14 0.9897734 0.1426484 0.9924005 2.38418e-7 -0.1426482 0.9897733 1.49012e-7 0 0 0 1 1 4.14495e-8 -2.34788e-7 -7.10543e-15 -3.64153e-14 0.9847717 0.1738519 0.9924005 2.38418e-7 -0.1738519 0.9847717 8.9407e-8 0 0 0 1 1 4.93608e-8 -2.33253e-7 2.84217e-14 -1.95399e-14 0.9783337 0.2070341 0.9924006 2.38418e-7 -0.2070342 0.9783337 -1.19209e-7 0 0 0 1 1 5.76446e-8 -2.31345e-7 -3.90799e-14 -2.4869e-14 0.9703314 0.2417789 0.9924008 2.38418e-7 -0.2417789 0.9703314 2.98023e-8 0 0 0 1 1 6.61982e-8 -2.29044e-7 1.42109e-14 -1.95399e-14 0.9606808 0.2776552 0.9924006 2.38418e-7 -0.2776553 0.9606807 -2.98023e-8 0 0 0 1 1 7.49167e-8 -2.26342e-7 1.42109e-14 -1.06581e-14 0.949349 0.3142235 0.9924006 2.38418e-7 -0.3142234 0.949349 -5.96046e-8 0 0 0 1 1 8.3695e-8 -2.23245e-7 -7.10543e-15 0 0.9363597 0.3510424 0.9924008 2.38418e-7 -0.3510424 0.9363597 -2.98023e-8 0 0 0 1 1 9.24295e-8 -2.19773e-7 -2.13163e-14 -7.10543e-15 0.9217951 0.3876775 0.9924006 2.38418e-7 -0.3876774 0.9217951 0 0 0 0 1 1 1.0102e-7 -2.15959e-7 1.42109e-14 -1.42109e-14 0.9057978 0.4237101 0.9924006 2.38418e-7 -0.4237101 0.9057978 -5.96046e-8 0 0 0 1 1 1.09373e-7 -2.11851e-7 -7.10543e-15 -1.06581e-14 0.8885677 0.4587455 0.9924007 2.38418e-7 -0.4587455 0.8885677 -2.98023e-8 0 0 0 1 1 1.17402e-7 -2.07509e-7 7.10543e-15 -3.55271e-15 0.8703573 0.4924207 0.9924006 2.38418e-7 -0.4924207 0.8703572 1.49012e-8 0 0 0 1 1 1.25029e-7 -2.03005e-7 1.42109e-14 0 0.8514656 0.5244105 0.9924006 2.38418e-7 -0.5244105 0.8514655 4.47035e-8 0 0 0 1 1 1.32187e-7 -1.98419e-7 -1.42109e-14 7.10543e-15 0.8322299 0.5544308 0.9924007 2.38418e-7 -0.5544308 0.8322298 8.19564e-8 0 0 0 1 1 1.38817e-7 -1.93838e-7 -2.13163e-14 -7.10543e-15 0.8130167 0.5822403 0.9924006 2.38418e-7 -0.5822403 0.8130167 -1.49012e-8 0 0 0 1 1 1.44872e-7 -1.89355e-7 0 -7.10543e-15 0.7942131 0.6076394 0.9924006 2.38418e-7 -0.6076393 0.7942132 0 0 0 0 1 1 1.50315e-7 -1.85065e-7 -2.84217e-14 -1.42109e-14 0.7762172 0.6304656 0.9924006 2.38418e-7 -0.6304656 0.7762172 7.07805e-8 0 0 0 1 1 1.55113e-7 -1.81062e-7 -1.42109e-14 -1.42109e-14 0.7594295 0.6505895 0.9924006 2.38418e-7 -0.6505895 0.7594295 1.67638e-7 0 0 0 1 1 1.59241e-7 -1.77442e-7 0 2.13163e-14 0.7442472 0.6679042 0.9924008 2.38418e-7 -0.6679042 0.7442472 -2.6077e-8 0 0 0 1 1 1.62677e-7 -1.74297e-7 -1.42109e-14 1.42109e-14 0.731056 0.6823176 0.9924006 2.38418e-7 -0.6823176 0.731056 -7.45058e-9 0 0 0 1 1 1.654e-7 -1.71715e-7 1.42109e-14 -2.13163e-14 0.7202256 0.69374 0.9924007 2.38418e-7 -0.6937401 0.7202256 -3.35276e-8 0 0 0 1 1 1.67387e-7 -1.69779e-7 -2.84217e-14 0 0.7121059 0.7020721 0.9924008 2.38418e-7 -0.7020721 0.7121059 -9.31323e-9 0 0 0 1 1 1.68608e-7 -1.68567e-7 0 -7.10543e-15 0.7070212 0.7071924 0.9924006 2.38418e-7 -0.7071925 0.7070211 7.10133e-8 0 0 0 1 1 1.69025e-7 -1.68149e-7 -1.84119e-14 -2.43378e-14 0.7052664 0.7089424 0.9924006 2.38418e-7 -0.7089424 0.7052664 7.71721e-8 0 0 0 1</float_array>
          <technique_common>
            <accessor source="#Armature_ArmatureAction_Bone_002_pose_matrix-output-array" count="60" stride="16">
              <param name="TRANSFORM" type="float4x4"/>
            </accessor>
          </technique_common>
        </source>
        <source id="Armature_ArmatureAction_Bone_002_pose_matrix-interpolation">
          <Name_array id="Armature_ArmatureAction_Bone_002_pose_matrix-interpolation-array" count="60">LINEAR LINEAR LINEAR LINEAR LINEAR LINEAR LINEAR LINEAR LINEAR LINEAR LINEAR LINEAR LINEAR LINEAR LINEAR LINEAR LINEAR LINEAR LINEAR LINEAR LINEAR LINEAR LINEAR LINEAR LINEAR LINEAR LINEAR LINEAR LINEAR LINEAR LINEAR LINEAR LINEAR LINEAR LINEAR LINEAR LINEAR LINEAR LINEAR LINEAR LINEAR LINEAR LINEAR LINEAR LINEAR LINEAR LINEAR LINEAR LINEAR LINEAR LINEAR LINEAR LINEAR LINEAR LINEAR LINEAR LINEAR LINEAR LINEAR LINEAR</Name_array>
          <technique_common>
            <accessor source="#Armature_ArmatureAction_Bone_002_pose_matrix-interpolation-array" count="60" stride="1">
              <param name="INTERPOLATION" type="name"/>
            </accessor>
          </technique_common>
        </source>
        <sampler id="Armature_ArmatureAction_Bone_002_pose_matrix-sampler">
          <input semantic="INPUT" source="#Armature_ArmatureAction_Bone_002_pose_matrix-input"/>
          <input semantic="OUTPUT" source="#Armature_ArmatureAction_Bone_002_pose_matrix-output"/>
          <input semantic="INTERPOLATION" source="#Armature_ArmatureAction_Bone_002_pose_matrix-interpolation"/>
        </sampler>
        <channel source="#Armature_ArmatureAction_Bone_002_pose_matrix-sampler" target="Armature_Bone_002/transform"/>
      </animation>
    </animation>
  </library_animations>
  <library_visual_scenes>
    <visual_scene id="Scene" name="Scene">
      <node id="Armature" name="Armature" type="NODE">
        <matrix sid="transform">1 0 0 0 0 1 0 0 0 0 1 0 0 0 0 1</matrix>
        <node id="Armature_Bone" name="Bone" sid="Bone" type="JOINT">
          <matrix sid="transform">1 0 0 0 0 0.7070324 -0.7071811 -0.003477484 0 0.7071811 0.7070324 0.006846368 0 0 0 1</matrix>
          <node id="Armature_Bone_001" name="Bone.001" sid="Bone_001" type="JOINT">
            <matrix sid="transform">1 0 2.38418e-7 0 2.38418e-7 -0.002494216 -0.9999968 1 5.94675e-10 0.9999969 -0.002494216 -5.96046e-8 0 0 0 1</matrix>
            <node id="Armature_Bone_002" name="Bone.002" sid="Bone_002" type="JOINT">
              <matrix sid="transform">1 1.69025e-7 -1.68149e-7 -1.84119e-14 -2.43378e-14 0.7052664 0.7089424 0.9924006 2.38418e-7 -0.7089424 0.7052664 7.71721e-8 0 0 0 1</matrix>
              <extra>
                <technique profile="blender">
                  <connect sid="connect" type="bool">1</connect>
                  <layer sid="layer" type="string">0</layer>
                  <tip_x sid="tip_x" type="float">0</tip_x>
                  <tip_y sid="tip_y" type="float">0</tip_y>
                  <tip_z sid="tip_z" type="float">1.586066</tip_z>
                </technique>
              </extra>
            </node>
            <extra>
              <technique profile="blender">
                <connect sid="connect" type="bool">1</connect>
                <layer sid="layer" type="string">0</layer>
                <roll sid="roll" type="float">2.38419e-7</roll>
              </technique>
            </extra>
          </node>
          <extra>
            <technique profile="blender">
              <layer sid="layer" type="string">0</layer>
            </technique>
          </extra>
        </node>
        <node id="Cube" name="Cube" type="NODE">
          <matrix sid="transform">1 0 0 0 0 1 0 0 0 0 1 0 0 0 0 1</matrix>
          <instance_controller url="#Armature_Cube-skin">
            <skeleton>#Armature_Bone</skeleton>
            <bind_material>
              <technique_common>
                <instance_material symbol="Material-material" target="#Material-material">
                  <bind_vertex_input semantic="UVMap" input_semantic="TEXCOORD" input_set="0"/>
                </instance_material>
              </technique_common>
            </bind_material>
          </instance_controller>
        </node>
      </node>
    </visual_scene>
  </library_visual_scenes>
  <scene>
    <instance_visual_scene url="#Scene"/>
  </scene>
</COLLADA>